<svg width="947" height="532" viewBox="0 0 947 532" fill="none" xmlns="http://www.w3.org/2000/svg">
<rect width="947" height="532" fill="#D9D9D9"/>
<path d="M403 422V328.909H470.091V349.273H428.273V365.273H466.636V385.636H428.273V401.636H469.909V422H403ZM508.08 328.909L527.17 394.545H527.898L546.989 328.909H575.534L544.807 422H510.261L479.534 328.909H508.08ZM584.5 422V328.909H651.591V349.273H609.773V365.273H648.136V385.636H609.773V401.636H651.409V422H584.5ZM744.67 328.909V422H723.58L689.943 373.091H689.398V422H664.125V328.909H685.58L718.67 377.636H719.398V328.909H744.67ZM754.08 349.273V328.909H834.989V349.273H806.989V422H782.08V349.273H754.08Z" fill="white"/>
<path d="M161 312L300.43 477H21.5699L161 312Z" fill="white"/>
<ellipse cx="558.5" cy="194.5" rx="47.5" ry="46.5" fill="white"/>
<path d="M160.5 266L285.641 431H35.3593L160.5 266Z" fill="white"/>
<path d="M160.5 253L250.134 361H70.8664L160.5 253Z" fill="white"/>
<rect x="149" y="469" width="24" height="63" fill="white"/>
<rect x="534" y="120" width="46" height="43" fill="white"/>
<line x1="556.5" y1="123" x2="556.5" stroke="white" stroke-width="5"/>
<line x1="708.502" y1="163.107" x2="701.502" y2="0.107259" stroke="white" stroke-width="5"/>
<path d="M729.383 145.291L724.025 174.902L756.117 196.183L720.714 193.202L715.356 222.813L698.833 191.36L663.43 188.38L688.622 171.921L672.099 140.468L704.191 161.749L729.383 145.291Z" fill="white"/>
</svg>
