<svg width="405" height="221" viewBox="0 0 405 221" fill="none" xmlns="http://www.w3.org/2000/svg">
<path d="M57.064 157V63.56H87.4C93.8853 63.56 99.5173 64.7973 104.296 67.272C109.16 69.7467 112.915 73.2453 115.56 77.768C118.291 82.2053 119.656 87.4533 119.656 93.512V126.92C119.656 132.893 118.291 138.141 115.56 142.664C112.915 147.187 109.16 150.728 104.296 153.288C99.5173 155.763 93.8853 157 87.4 157H57.064ZM76.264 139.08H87.4C91.3253 139.08 94.4827 137.971 96.872 135.752C99.2613 133.533 100.456 130.589 100.456 126.92V93.512C100.456 89.928 99.2613 87.0267 96.872 84.808C94.4827 82.5893 91.3253 81.48 87.4 81.48H76.264V139.08ZM164.662 158.28C158.433 158.28 152.971 157.128 148.278 154.824C143.585 152.435 139.915 149.149 137.27 144.968C134.71 140.701 133.43 135.752 133.43 130.12V90.44C133.43 84.7227 134.71 79.7733 137.27 75.592C139.915 71.4107 143.585 68.168 148.278 65.864C152.971 63.4747 158.433 62.28 164.662 62.28C170.977 62.28 176.438 63.4747 181.046 65.864C185.739 68.168 189.366 71.4107 191.926 75.592C194.571 79.7733 195.894 84.7227 195.894 90.44H176.694C176.694 86.6853 175.627 83.8267 173.494 81.864C171.446 79.9013 168.502 78.92 164.662 78.92C160.822 78.92 157.835 79.9013 155.702 81.864C153.654 83.8267 152.63 86.6853 152.63 90.44V130.12C152.63 133.789 153.654 136.648 155.702 138.696C157.835 140.659 160.822 141.64 164.662 141.64C168.502 141.64 171.446 140.659 173.494 138.696C175.627 136.648 176.694 133.789 176.694 130.12H195.894C195.894 135.752 194.571 140.701 191.926 144.968C189.366 149.149 185.739 152.435 181.046 154.824C176.438 157.128 170.977 158.28 164.662 158.28ZM240.9 158.28C234.329 158.28 228.612 157.171 223.748 154.952C218.884 152.733 215.129 149.619 212.484 145.608C209.839 141.597 208.516 136.861 208.516 131.4H227.716C227.716 134.557 228.911 137.075 231.3 138.952C233.775 140.744 237.103 141.64 241.284 141.64C245.295 141.64 248.409 140.744 250.628 138.952C252.932 137.16 254.084 134.685 254.084 131.528C254.084 128.797 253.231 126.451 251.524 124.488C249.817 122.525 247.428 121.203 244.356 120.52L234.884 118.344C226.948 116.467 220.761 113.011 216.324 107.976C211.972 102.856 209.796 96.6267 209.796 89.288C209.796 83.8267 211.033 79.0907 213.508 75.08C216.068 70.984 219.652 67.8267 224.26 65.608C228.868 63.3893 234.329 62.28 240.644 62.28C250.201 62.28 257.753 64.6693 263.3 69.448C268.932 74.1413 271.748 80.4987 271.748 88.52H252.548C252.548 85.5333 251.481 83.1867 249.348 81.48C247.3 79.7733 244.313 78.92 240.388 78.92C236.719 78.92 233.903 79.7733 231.94 81.48C229.977 83.1013 228.996 85.448 228.996 88.52C228.996 91.2507 229.764 93.5973 231.3 95.56C232.921 97.4373 235.183 98.7173 238.084 99.4L248.068 101.704C256.345 103.581 262.617 106.995 266.884 111.944C271.151 116.808 273.284 123.037 273.284 130.632C273.284 136.093 271.919 140.915 269.188 145.096C266.543 149.277 262.788 152.52 257.924 154.824C253.145 157.128 247.471 158.28 240.9 158.28ZM317.65 158.28C311.079 158.28 305.362 157.171 300.498 154.952C295.634 152.733 291.879 149.619 289.234 145.608C286.589 141.597 285.266 136.861 285.266 131.4H304.466C304.466 134.557 305.661 137.075 308.05 138.952C310.525 140.744 313.853 141.64 318.034 141.64C322.045 141.64 325.159 140.744 327.378 138.952C329.682 137.16 330.834 134.685 330.834 131.528C330.834 128.797 329.981 126.451 328.274 124.488C326.567 122.525 324.178 121.203 321.106 120.52L311.634 118.344C303.698 116.467 297.511 113.011 293.074 107.976C288.722 102.856 286.546 96.6267 286.546 89.288C286.546 83.8267 287.783 79.0907 290.258 75.08C292.818 70.984 296.402 67.8267 301.01 65.608C305.618 63.3893 311.079 62.28 317.394 62.28C326.951 62.28 334.503 64.6693 340.05 69.448C345.682 74.1413 348.498 80.4987 348.498 88.52H329.298C329.298 85.5333 328.231 83.1867 326.098 81.48C324.05 79.7733 321.063 78.92 317.138 78.92C313.469 78.92 310.653 79.7733 308.69 81.48C306.727 83.1013 305.746 85.448 305.746 88.52C305.746 91.2507 306.514 93.5973 308.05 95.56C309.671 97.4373 311.933 98.7173 314.834 99.4L324.818 101.704C333.095 103.581 339.367 106.995 343.634 111.944C347.901 116.808 350.034 123.037 350.034 130.632C350.034 136.093 348.669 140.915 345.938 145.096C343.293 149.277 339.538 152.52 334.674 154.824C329.895 157.128 324.221 158.28 317.65 158.28Z" fill="white"/>
<rect x="8.5" y="8.5" width="388" height="204" stroke="white" stroke-width="17"/>
</svg>
