<svg width="750" height="440" viewBox="0 0 750 440" fill="none" xmlns="http://www.w3.org/2000/svg">
<path d="M750 0H0V440H750V0Z" fill="white"/>
<path d="M195.185 84.9545V66.1818H269.773V84.9545H243.96V152H220.997V84.9545H195.185ZM278.541 152V66.1818H340.39V84.9545H301.839V99.7045H337.206V118.477H301.839V133.227H340.223V152H278.541ZM374.238 152H349.096L377.423 66.1818H409.269L437.596 152H412.454L393.681 89.8153H393.011L374.238 152ZM369.545 118.142H416.812V135.574H369.545V118.142ZM445.861 66.1818H474.858L494.805 114.79H495.81L515.756 66.1818H544.753V152H521.958V102.386H521.287L502.18 151.33H488.435L469.327 102.051H468.657V152H445.861V66.1818Z" fill="#626262"/>
<path d="M493.252 224.346C492.557 222.417 485.503 216.863 485.426 215.207C485.348 213.552 482.288 209.468 482.288 209.468C482.288 209.468 484.225 205.755 485.926 203.41C487.627 201.066 486.164 198.871 488.044 197.122C489.924 195.373 490.758 190.654 489.905 188.582C489.052 186.509 469.143 177.184 463.443 174.736C457.743 172.288 443.292 173.121 438.789 173.634C434.286 174.148 426.428 170.746 422.375 171.238C418.323 171.731 414.201 167.548 410.975 166.342C407.748 165.136 406.601 163.227 403.649 161.405C400.695 159.583 398.39 152.295 397.408 150.692C396.427 149.089 394.948 149.741 394.088 147.518C393.229 145.294 391.287 142.518 391.287 142.518L396.578 145.892C396.578 145.892 399.318 146.367 400.981 146.439C402.645 146.511 406.517 148.593 407.125 148.715C407.735 148.836 410.667 150.208 411.112 150.036C411.558 149.864 411.844 149.549 413.185 149.184C414.526 148.819 424.938 148.78 427.793 148.495C430.647 148.209 448.414 140.882 450.371 140.79C452.329 140.697 459.259 134.032 459.259 134.032C459.259 134.032 461.223 134.091 461.819 133.912C462.334 133.756 463.408 131.09 463.4 130.487C464.209 130.969 469.458 132.645 469.458 132.645C469.458 132.645 470.585 130.932 470.385 129.885C470.184 128.839 468.917 124.37 467.95 123.057C466.982 121.744 463.755 120.538 461.785 120.329C459.812 120.121 455.258 122.751 454.081 123.409C452.905 124.068 441.169 131.263 439.254 132.258C437.34 133.254 424.093 134.029 424.093 134.029C424.093 134.029 413.96 133.601 411.53 133.263C409.099 132.925 403.134 128.074 400.367 126.997C397.6 125.92 389.386 118.158 381.756 116.403C374.127 114.651 362.223 115.061 361.327 115.254C360.431 115.446 356.022 111.579 356.022 111.579L356.906 107.916C356.906 107.916 357.9 100.171 357.678 98.6722C357.456 97.1733 354.497 92.0308 350.038 90.2778C345.578 88.5262 340.258 87.72 340.258 87.72C340.258 87.72 332.893 88.3685 330.862 90.1254C328.831 91.8824 328.264 95.8322 328.457 96.7294C328.651 97.6252 326.598 98.9302 325.852 99.1161C325.106 99.302 325.371 101.705 327.069 102.53C326.601 105.419 328.005 109.579 328.005 109.579C328.005 109.579 328.799 113.617 327.586 113.523C326.375 113.43 323.435 111.908 321.161 111.713C318.888 111.518 314.381 105.542 309.699 102.292C305.017 99.0412 297.217 96.843 297.217 96.843L291.785 87.2881L276.595 62.7991C276.595 62.7991 279.654 54.0517 279.927 53.4353C280.199 52.8189 283.55 50.2463 284.109 49.2997C284.668 48.353 284.033 44.4888 281.161 44.3872C278.289 44.2869 272.872 51.0513 272.872 51.0513L269.394 50.9136L264.193 39.8383C264.193 39.8383 261.233 37.8648 260.041 38.2231C258.851 38.5815 259.522 43.2279 259.522 43.2279L256.347 39.9065C256.347 39.9065 253.702 39.1257 252.582 40.0844C251.461 41.0431 255.769 46.8768 255.769 46.8768L252.937 44.4447C252.937 44.4447 249.918 44.4353 249.08 45.8994C248.241 47.3636 254.297 51.776 254.297 51.776L250.647 50.2878C250.647 50.2878 249.498 51.55 249.426 53.2134C249.354 54.8767 261.943 62.5851 261.943 62.5851L266.371 70.0742C266.371 70.0742 272.161 80.8192 276.459 88.7669C280.758 96.7147 285.045 101.191 287.438 103.946C289.832 106.7 296.456 112.728 299.502 116.508C302.548 120.288 315.099 130.412 317.364 133.627C319.629 136.841 322.524 140.628 324.895 146.101C327.265 151.573 333.831 159.565 340.652 169.809C347.474 180.052 358.579 188.282 361.396 190.413C364.214 192.545 368.527 200.793 368.527 200.793L372.092 199.569L375.46 203.787L380.712 212.746C380.712 212.746 392.325 222.16 403.401 229.788C414.478 237.417 433.27 245.435 435.878 246.368C438.488 247.302 450.727 253.97 452.712 254.479C454.698 254.989 456.865 252.926 458.65 252.388C460.437 251.851 463.644 246.267 463.644 246.267C463.644 246.267 468.414 244.986 471.104 244.428C473.794 243.872 488.708 243.273 489.476 243.539C490.243 243.805 492.976 240.959 492.577 238.865C492.175 236.771 486.699 232.651 481.784 230.842C476.868 229.033 469.697 230.585 467.467 231.313C465.237 232.04 458.526 227.339 455.98 227.761C453.434 228.184 449.819 231.523 449.819 231.523L440.479 222.303L438.9 211.208C438.9 211.208 436.182 211.185 435.73 211.207C435.306 211.227 434.034 207.309 433.386 206.964C435.264 207.018 457.224 206.118 457.224 206.118L458.436 203.042L465.314 201.661L467.622 205.778C467.622 205.778 460.35 208.385 460.176 211.11C460.002 213.835 464.44 218.305 465.673 218.851C466.906 219.396 473.173 221.062 475.023 221.882C476.872 222.7 482.004 229.1 484.149 229.754C484.149 229.754 492.64 230.561 493.514 229.915C494.39 229.274 493.946 226.276 493.252 224.346Z" fill="#D3D3D3"/>
<path d="M308.981 56.0587C319.209 55.576 327.11 46.8942 326.627 36.6667C326.144 26.4392 317.463 18.5383 307.235 19.021C297.008 19.5037 289.107 28.1855 289.589 38.413C290.071 48.6405 298.752 56.5401 308.981 56.0587Z" fill="#D3D3D3"/>
<path d="M197.947 378.613C196.649 378.335 187.193 378.613 186.451 378.335C185.709 378.057 183.206 377.871 183.206 377.871C183.206 377.871 180.703 369.527 179.961 366.19C179.219 362.852 177.829 351.82 176.624 349.132C175.419 346.444 173.75 342.364 173.75 342.364C173.75 342.364 173.843 338.192 173.379 336.523C172.915 334.854 169.856 331.702 169.393 330.59C168.929 329.477 165.499 319.187 164.479 317.055C163.459 314.923 158.175 304.632 157.804 303.056C157.433 301.48 155.95 298.699 155.95 298.699L154.652 296.845L155.95 293.044C155.95 293.044 157.248 292.024 157.248 290.912C157.248 289.8 157.712 285.813 157.712 285.813C157.712 285.813 159.937 281.178 159.752 278.396C159.567 275.615 159.01 264.119 159.01 262.821C159.01 261.523 158.732 255.682 157.156 251.232C155.58 246.782 152.706 239.551 152.706 239.551C152.706 239.551 154.189 236.121 154.282 235.472C154.375 234.823 154.189 232.042 154.189 231.393C154.189 230.744 154.56 225.831 154.096 224.347C153.632 222.864 152.705 221.102 152.705 221.102C152.705 221.102 153.632 213.407 153.91 210.255C154.188 207.103 155.764 198.388 155.857 198.11C155.95 197.832 157.897 196.905 158.453 195.885C159.009 194.865 159.658 193.567 160.585 192.826C161.512 192.084 164.015 190.323 164.108 189.859C164.201 189.395 164.108 188.376 164.108 188.376C164.108 188.376 159.565 190.972 158.824 190.786C158.082 190.601 157.619 190.137 157.619 190.137C157.619 190.137 160.678 188.839 160.771 188.375C160.864 187.911 160.771 187.355 160.771 187.355L158.639 187.726C158.639 187.726 161.142 185.964 160.864 185.501C160.586 185.037 159.566 184.852 159.566 184.852L157.341 186.152C157.341 186.152 158.824 183.742 159.195 183.278C159.566 182.815 158.765 182 158.765 182C158.765 182 155.983 184.288 155.893 184.513C155.803 184.737 154.996 187.429 154.816 187.699C154.637 187.968 152.752 192.007 152.393 194.026C152.034 196.045 151.226 197.481 151.182 198.558C151.137 199.635 151.092 201.25 149.656 204.974C148.22 208.698 145.707 214.486 145.618 216.506C144.631 216.551 143.734 216.506 143.734 216.506C143.734 216.506 138.583 216.933 136.482 220.085C134.381 223.237 133.824 226.018 133.824 226.018L134.875 230.159C134.875 230.159 133.886 230.777 134.195 232.199C134.504 233.621 135.74 235.907 136.173 236.216C136.606 236.525 137.162 236.71 137.162 236.71C137.162 236.71 136.173 239.368 135.431 239.677C134.689 239.986 133.144 239.677 133.144 239.677C133.144 239.677 131.29 239.553 129.683 240.851C128.076 242.149 127.273 244.065 127.273 244.065L116.581 251.543L109.783 255.684L110.71 256.549C110.71 256.549 101.686 261.061 100.327 261.802C98.9671 262.544 94.8881 263.038 89.3261 266.561C83.7631 270.084 81.6001 271.382 81.6001 271.382C81.6001 271.382 76.9031 271.073 76.2231 271.073C75.5431 271.073 73.1951 271.876 72.9471 272.062C72.7001 272.248 71.8351 272.927 71.8351 272.927C71.8351 272.927 69.9811 272.865 69.6721 273.174C69.3631 273.483 68.9301 274.225 68.9301 274.225C68.9301 274.225 67.5701 274.596 67.3231 275.028C67.0761 275.461 65.8401 277.871 66.0251 278.242C66.2101 278.613 66.8901 278.798 66.8901 278.798L67.8171 278.242C67.8171 278.242 68.8061 278.428 69.1151 277.995C69.4241 277.562 69.7331 276.759 69.7331 276.759H70.9691C70.9691 276.759 73.0091 277.686 74.9251 277.377C76.8411 277.068 78.3861 277.933 80.0551 277.501C81.7241 277.068 82.4031 275.523 82.4031 275.523C82.4031 275.523 92.2301 273.051 94.5171 272.804C96.8041 272.557 100.821 271.753 102.057 270.826C103.293 269.899 108.547 266.438 110.153 265.696C111.76 264.954 114.788 263.78 114.788 263.78C114.788 263.78 116.828 265.943 117.631 265.51C118.434 265.077 120.598 262.543 121.834 261.987C123.07 261.431 125.604 260.936 125.604 260.936C125.604 260.936 126.284 264.026 127.644 265.262C129.004 266.498 127.829 268.105 129.189 269.156C130.549 270.207 129.622 273.297 130.796 273.235C131.97 273.173 129.251 274.78 129.993 275.522C130.735 276.264 130.178 278.736 128.139 279.972C126.099 281.208 122.762 283.742 122.268 286.4C121.774 289.058 120.167 292.89 118.869 293.94C117.571 294.991 115.161 296.969 115.284 297.772C115.408 298.576 112.626 299.564 111.081 301.48C109.536 303.396 104.962 307.475 103.788 308.835C102.614 310.195 95.2591 316.87 95.2591 316.87H93.1581C93.1581 316.87 91.6131 313.78 88.8941 311.616C86.1751 309.453 78.5721 307.475 77.0891 307.166C75.6061 306.857 70.1051 304.053 70.1051 304.053C70.1051 304.053 70.5381 301.048 70.7231 300.491C70.9081 299.935 70.2901 297.833 69.7341 297.463C69.1781 297.092 66.7671 296.721 66.7671 296.721C66.7671 296.721 66.5441 295.485 66.0061 295.547C65.4691 295.609 64.7271 296.66 64.7271 296.66L62.6871 297.278C62.6871 297.278 57.1251 297.587 54.7141 297.402C52.3041 297.217 52.6131 296.228 52.6131 296.228C52.6131 296.228 51.7481 295.981 51.3771 296.537C51.0061 297.093 50.8211 297.464 50.8211 297.464L47.8541 297.773C47.8541 297.773 47.2361 297.093 46.8031 297.279C46.3701 297.464 46.1231 298.701 46.1231 298.701C46.1231 298.701 43.8981 300.061 43.3421 301.111C42.7861 302.162 42.7861 303.846 44.2691 304.672C45.7521 305.499 50.5111 305.313 53.1071 306.117C55.7031 306.92 54.4671 308.28 55.6411 308.713C56.8151 309.146 58.8551 308.528 58.8551 308.528C58.8551 308.528 62.2541 310.444 62.9961 310.32C63.7381 310.196 63.7991 311.494 64.4791 311.618C65.1591 311.742 69.5471 313.843 70.5361 315.079C71.5251 316.315 76.6551 320.518 79.7451 323.114C82.8351 325.71 86.3581 326.204 86.3581 326.204C86.3581 326.204 91.1791 330.221 93.0951 330.283C95.0111 330.345 99.7081 329.727 99.7081 329.727C99.7081 329.727 111.265 323.856 114.294 322.434C117.323 321.013 120.598 319.9 120.598 319.9C120.598 319.9 122.761 322.619 124.059 321.631C125.357 320.642 133.083 316.068 133.083 316.068C133.083 316.068 136.544 321.507 138.089 322.434C139.634 323.361 138.522 325.153 140.438 326.019C142.354 326.884 145.011 327.997 145.011 327.997L146.989 327.194C146.989 327.194 150.265 330.779 153.726 333.498C157.187 336.217 159.721 340.915 160.648 341.533C161.575 342.151 162.688 343.449 162.688 345.303C162.688 347.157 163.491 353.214 164.171 356.86C164.851 360.506 171.34 374.351 172.546 376.39C173.751 378.43 173.751 383.714 174.771 384.826C175.791 385.938 176.347 391.408 176.718 392.706C177.089 394.004 180.055 395.487 181.075 395.58C182.095 395.673 183.393 395.58 183.393 395.58L184.598 395.209L184.227 393.633C184.227 393.633 186.174 394.189 186.545 393.818C186.916 393.447 186.545 391.964 186.545 391.964C186.545 391.964 193.684 386.958 195.445 386.216C197.207 385.474 200.544 382.971 200.915 381.673C201.284 380.375 199.245 378.891 197.947 378.613Z" fill="#8A8A8A"/>
<path d="M226.323 398.867C233.946 397.067 238.667 389.428 236.867 381.804C235.067 374.18 227.428 369.459 219.804 371.26C212.18 373.06 207.459 380.699 209.259 388.323C211.06 395.947 218.699 400.667 226.323 398.867Z" fill="#8A8A8A"/>
<path d="M693.837 281.764C693.837 281.764 691.684 271.598 690.369 267.771C689.054 263.944 683.193 256.768 681.16 254.615C679.127 252.462 671.832 251.984 669.32 249.831C666.809 247.678 665.852 244.928 666.091 244.569C666.33 244.21 667.407 238.709 667.407 237.872C667.407 237.035 667.287 229.739 665.613 227.347C663.939 224.955 659.035 224.118 659.035 224.118C659.035 224.118 658.198 222.324 655.447 223.281C652.696 224.238 642.889 230.218 642.889 230.218L643.726 233.208L645.4 233.447C645.4 233.447 644.922 239.546 645.041 239.905C645.161 240.264 646.835 241.34 646.835 241.34C646.835 241.34 646.117 245.765 646.596 246.124C647.074 246.483 647.792 246.602 647.792 246.602C647.792 246.602 648.868 250.07 649.227 250.429C649.586 250.788 650.423 252.343 651.141 252.582C651.859 252.821 655.446 252.701 655.446 252.701L656.044 254.734C656.044 254.734 654.489 256.528 652.217 257.126C649.945 257.724 645.759 259.159 644.204 262.388C642.649 265.617 639.898 275.304 639.181 277.457C638.464 279.61 637.028 287.144 637.028 287.144C637.028 287.144 634.157 291.091 631.646 293.363C629.135 295.635 618.013 306.16 618.013 306.16C618.013 306.16 613.708 306.878 612.99 307.476C612.272 308.074 608.445 309.509 608.206 309.868C607.967 310.227 606.173 312.499 606.053 312.977C605.933 313.455 606.053 316.206 606.053 316.206H607.847C607.847 316.206 608.564 317.163 609.043 317.641C609.522 318.119 609.761 320.033 610.598 319.794C611.435 319.555 612.631 319.076 612.631 319.076C612.631 319.076 612.153 316.564 613.109 316.086C614.066 315.608 618.371 315.129 619.208 313.814C620.045 312.498 620.882 310.106 620.882 310.106C620.882 310.106 631.048 305.203 633.2 303.767C635.353 302.332 642.887 295.515 643.246 294.917C643.605 294.319 644.562 290.731 644.562 290.731L646.117 290.372L648.15 284.751C648.15 284.751 648.389 289.057 647.911 290.731C647.433 292.405 645.4 299.103 645.16 301.854C644.92 304.605 642.648 305.203 642.768 306.757C642.888 308.312 642.29 309.029 642.29 309.029C642.29 309.029 634.277 312.151 633.201 312.324C632.125 312.497 625.068 316.205 625.068 316.205C625.068 316.205 616.337 321.587 615.022 321.826C613.706 322.065 609.52 325.055 609.879 327.686C610.238 330.317 611.434 335.819 612.63 337.613C613.826 339.407 615.739 343.952 615.739 343.952C615.739 343.952 621.121 354.237 622.317 357.347C623.513 360.456 626.383 373.732 626.383 373.732C626.383 373.732 624.35 373.732 624.589 374.928C624.828 376.124 623.752 379.951 623.752 379.951C623.752 379.951 624.111 384.615 621.838 386.888C619.566 389.16 615.858 392.748 616.097 393.705C616.336 394.662 617.652 395.858 618.13 395.858C618.608 395.858 625.664 394.064 627.219 392.749C628.774 391.434 635.352 385.454 637.504 383.899C639.657 382.344 642.288 380.431 642.527 379.354C642.766 378.278 642.527 375.168 642.168 374.809C641.809 374.45 635.471 369.188 635.471 369.188L634.993 369.906C634.993 369.906 633.677 357.468 632.84 352.684C632.003 347.9 627.339 336.18 627.339 335.821C627.339 335.462 625.665 333.788 626.023 333.668C626.382 333.548 634.634 332.95 634.634 332.95C634.634 332.95 633.558 342.398 634.275 343.475C634.993 344.551 637.384 346.345 637.384 346.345L641.45 348.139C641.45 348.139 642.168 361.773 642.765 363.806C643.363 365.839 643.602 369.307 643.961 371.341C644.32 373.374 651.376 402.556 651.376 402.556C651.376 402.556 649.702 405.307 649.941 406.383C650.18 407.459 647.19 410.688 645.755 411.765C644.32 412.841 640.014 414.277 640.134 415.592C640.254 416.908 641.33 418.462 642.287 418.343C643.244 418.223 658.193 415.234 659.987 414.635C661.781 414.037 663.575 412.363 663.575 411.526C663.575 410.689 662.02 404.709 662.02 404.709L660.465 403.909C660.465 403.909 658.193 389.401 658.193 385.694C658.193 381.987 658.671 376.366 657.834 373.854C656.997 371.342 655.083 367.276 655.083 367.276L655.92 350.652L657.236 349.336C657.236 349.336 657.954 345.987 657.954 345.389C657.954 344.791 660.585 330.798 660.824 330.559C661.063 330.32 668.837 327.21 670.392 323.981C671.947 320.752 673.023 310.108 674.219 308.075C675.415 306.042 677.807 298.507 678.285 295.517C678.763 292.527 679.84 286.667 679.84 286.667L682.352 281.046C682.352 281.046 683.907 287.145 684.385 287.385C684.863 287.624 685.94 287.385 685.94 287.385C685.94 287.385 686.06 298.627 685.94 303.291C685.82 307.955 684.744 316.207 683.787 317.523C682.83 318.839 681.395 320.632 681.754 322.427C682.113 324.221 682.472 328.287 682.232 329.124C681.993 329.961 681.993 331.277 682.71 331.277C683.428 331.277 683.906 330.56 684.025 330.201C684.145 329.842 683.905 333.311 684.264 333.55C684.623 333.789 685.992 333.072 685.992 333.072C685.992 333.072 687.015 334.029 687.733 333.55C688.451 333.072 689.647 330.919 690.125 330.56C690.603 330.201 691.68 328.886 691.799 327.929C691.919 326.972 690.603 320.992 690.723 318.72C690.843 316.448 692.397 304.608 693.115 301.977C693.833 299.346 693.713 289.539 693.833 286.788C693.956 284.036 693.837 281.764 693.837 281.764Z" fill="#474747"/>
<path d="M625.638 266.754C631.301 266.754 635.893 262.163 635.893 256.499C635.893 250.835 631.301 246.244 625.638 246.244C619.974 246.244 615.383 250.835 615.383 256.499C615.383 262.163 619.974 266.754 625.638 266.754Z" fill="#474747"/>
<path d="M371.598 293.907C371.598 293.907 370.881 292.233 370.522 291.516C370.163 290.799 369.446 289.962 368.609 289.364C367.772 288.766 361.675 288.049 361.675 288.049L345.178 281.713C345.178 281.713 339.799 274.54 334.419 269.878C329.039 265.216 318.161 256.369 316.726 255.652C315.291 254.935 307.521 251.109 307.521 251.109L306.804 249.196C306.804 249.196 308.119 245.49 308.119 244.892C308.119 244.294 307.163 243.936 307.163 243.936C307.163 243.936 307.043 237.002 305.968 234.97C304.892 232.938 298.198 229.112 292.101 232.101C286.004 235.09 287.797 245.729 287.797 245.729L285.765 248.957C285.765 248.957 279.31 249.196 277.038 249.316C274.766 249.436 273.452 248.001 271.539 249.675C269.626 251.349 266.159 255.652 266.159 255.652C266.159 255.652 262.692 257.325 261.497 259.836C260.302 262.346 258.03 271.073 257.313 272.747C256.596 274.421 256.596 284.343 256.476 286.614C256.356 288.885 254.563 292.113 254.922 293.308C255.281 294.503 255.878 299.405 256.117 301.198C256.356 302.991 257.312 304.904 257.312 304.904C257.312 304.904 258.507 305.86 258.866 305.741C259.225 305.621 260.301 306.936 261.018 306.578C261.735 306.219 257.91 310.284 257.671 312.196C257.432 314.109 257.193 314.946 257.193 314.946C257.193 314.946 253.248 319.967 253.368 321.88C253.488 323.793 251.336 329.411 251.455 330.965C251.575 332.519 251.45 341.007 251.45 341.007C251.45 341.007 250.618 343.039 251.216 349.495C251.814 355.95 253.248 366.112 253.248 366.112C253.248 366.112 251.694 366.59 252.052 368.742C252.411 370.894 252.769 376.154 253.008 378.903C253.247 381.653 256.498 391.097 258.578 392.053C260.659 393.009 264.603 392.053 265.321 390.738C266.038 389.423 266.995 383.087 266.158 381.055C265.321 379.023 262.811 377.588 262.811 373.882C262.811 370.176 260.898 364.438 260.898 364.438C260.898 364.438 261.615 351.886 262.333 349.854C263.05 347.822 264.007 343.279 264.246 341.605C264.485 339.931 264.605 336.465 264.605 336.465C264.605 336.465 275.125 334.791 276.201 333.835C277.277 332.879 281.939 333.357 283.613 336.465C285.287 339.573 289.949 340.529 290.905 342.442C291.861 344.355 291.861 347.284 293.535 346.716C295.209 346.148 296.524 346.716 296.524 346.716C296.524 346.716 305.131 353.32 310.271 355.831C315.411 358.341 318.161 362.406 319.954 362.765C321.747 363.124 326.17 368.623 326.888 370.774C327.605 372.926 333.702 382.011 339.321 388.108C344.94 394.205 346.254 397.432 346.733 399.345C347.211 401.258 348.765 404.605 349.841 405.8C350.917 406.995 355.579 416.081 355.579 416.081C355.579 416.081 358.568 417.874 361.915 417.635C365.262 417.396 366.697 415.842 366.697 414.527C366.697 413.212 365.382 408.789 363.708 406.757C362.034 404.725 356.416 397.911 355.938 397.313C355.46 396.715 351.395 387.989 350.2 384.88C349.005 381.772 345.06 371.969 343.864 370.057C342.669 368.144 337.289 361.928 337.289 361.928C337.289 361.928 332.866 357.385 331.79 355.951C330.714 354.516 326.052 347.105 325.454 345.431C324.856 343.757 317.803 334.313 317.803 334.313L307.761 320.326C307.761 320.326 306.805 316.62 306.446 315.783C306.087 314.946 304.772 312.675 304.055 312.077C303.338 311.479 310.869 308.371 311.467 306.937C312.065 305.502 313.619 297.493 314.097 294.146C314.575 290.799 314.934 282.789 315.292 282.909C315.651 283.029 330.474 282.909 330.474 282.909C330.474 282.909 334.778 287.691 336.212 287.93C337.647 288.169 339.201 288.169 339.201 288.169C339.201 288.169 341.233 293.429 347.928 294.385C354.622 295.341 361.197 294.265 361.197 294.265L364.186 295.699C364.186 295.699 363.23 296.655 364.186 297.134C365.142 297.612 366.696 298.688 366.696 298.688C366.696 298.688 364.186 300.362 364.664 300.84C365.142 301.318 366.696 301.318 366.696 301.318L369.446 298.927C369.446 298.927 370.044 301.079 370.522 301.198C371 301.317 372.196 301.078 372.196 301.078V295.938L371.598 293.907ZM270.942 280.16C270.464 281.714 269.388 285.659 269.029 287.213C268.67 288.767 267.236 299.287 267.236 299.287C267.236 299.287 265.921 298.331 265.443 297.613C264.965 296.896 263.052 295.103 263.052 295.103C263.052 295.103 262.454 291.278 262.096 289.723C261.737 288.169 263.531 284.224 265.204 280.518C266.878 276.812 267.236 272.15 267.236 272.15H272.137C272.137 272.15 271.42 278.606 270.942 280.16Z" fill="#6F6F6F"/>
<path d="M281.095 414.577C286.055 409.617 286.055 401.575 281.095 396.615C276.135 391.655 268.093 391.655 263.133 396.615C258.173 401.575 258.173 409.617 263.133 414.577C268.093 419.537 276.135 419.537 281.095 414.577Z" fill="#6F6F6F"/>
<path d="M484.777 340.025C484.069 334.762 483.765 328.791 483.765 326.969C483.765 325.147 484.069 321.296 483.967 319.78C483.866 318.265 484.169 314.216 482.651 312.192C481.133 310.168 479.918 308.852 479.817 306.423C479.716 303.994 480.323 301.059 481.335 299.946C482.347 298.833 484.675 296.201 483.966 292.052C483.257 287.903 477.893 284.36 473.643 283.146C473.441 284.563 473.441 284.563 473.441 284.563C473.441 284.563 470.809 282.438 469.19 282.438C468.988 283.349 468.988 284.766 468.988 284.766C468.988 284.766 466.964 284.867 465.344 286.891C463.725 288.915 463.117 291.142 463.219 291.749C463.32 292.356 460.588 294.482 460.689 295.393C460.79 296.304 461.802 296.709 461.802 296.709L461.195 298.025C461.195 298.025 458.867 299.037 456.337 298.835C453.807 298.632 448.544 299.543 448.544 299.543L438.423 296.709C438.423 296.709 429.618 293.369 425.468 292.154C421.318 290.939 410.388 283.248 410.388 283.248L408.769 281.629C408.769 281.629 407.775 278.27 407.106 277.761C406.438 277.252 402.968 275.342 402.236 275.183C401.504 275.024 399.181 275.947 398.83 276.488C398.48 277.029 396.411 275.279 395.711 275.82C395.011 276.361 395.011 276.711 395.138 277.093C395.265 277.475 398.034 278.239 398.034 278.239C398.034 278.239 398.32 279.226 398.766 279.385C399.212 279.544 400.485 279.894 400.485 279.894V280.658L393.451 280.562L385.908 275.438C385.908 275.438 385.972 272.414 386.513 271.555C387.054 270.696 388.709 268.372 388.136 266.622C387.563 264.871 384.221 263.344 382.089 263.917C379.957 264.49 379.065 265.636 379.065 265.636C379.065 265.636 378.428 265.477 378.11 265.827C377.792 266.177 378.142 267.005 378.142 267.005L377.494 267.259C377.494 267.259 377.414 267.283 377.274 267.326C376.344 267.611 372.759 268.715 372.231 268.979C371.624 269.283 369.802 269.485 369.6 269.89C369.398 270.295 369.6 271.509 369.6 271.509C369.6 271.509 368.385 273.533 368.892 274.343C369.398 275.153 370.511 276.266 373.75 276.064C375.471 277.279 380.126 278.088 381.644 280.214C383.162 282.339 385.085 284.566 387.717 288.21C390.349 291.853 390.652 294.384 394.802 296.813C398.952 299.242 399.761 300.963 399.761 300.963C399.761 300.963 401.279 304.202 404.821 308.149C408.363 312.096 411.703 317.764 411.804 318.068C411.905 318.372 411.602 321.206 412.411 322.015C413.221 322.825 410.69 323.938 412.411 324.647C414.132 325.355 417.775 326.772 417.775 326.772C417.775 326.772 418.686 328.391 419.597 328.695C420.508 328.999 421.317 329.505 421.317 329.505C421.317 329.505 418.584 331.023 417.674 331.63C416.763 332.237 406.136 333.351 406.136 333.351C406.136 333.351 395.509 334.464 392.675 334.667C389.841 334.869 386.906 334.464 385.084 335.477C383.262 336.489 380.934 338.21 380.023 340.639C379.112 343.068 379.112 346.003 379.112 347.521C379.112 349.039 378.505 356.529 378.505 356.529C378.505 356.529 377.291 356.833 377.088 359.363C376.886 361.893 376.278 374.545 376.278 374.545C376.278 374.545 372.938 381.731 371.723 383.35C370.509 384.969 363.626 394.382 362.918 395.698C362.21 397.014 360.59 398.532 361.096 399.848C361.602 401.164 363.019 402.075 364.031 401.771C365.043 401.467 369.091 401.467 370.812 399.747C372.533 398.026 377.593 392.156 378.605 391.751C379.617 391.346 383.969 389.828 384.981 387.804C385.993 385.78 384.576 381.732 384.576 381.732L382.552 378.898C382.552 378.898 386.702 369.081 388.22 365.639C389.738 362.198 390.654 356.024 391.158 353.595C391.662 351.166 391.158 348.534 391.158 348.534L406.033 349.546C406.033 349.546 406.741 352.38 407.652 352.279C408.563 352.178 411.093 350.356 411.498 350.356C411.903 350.356 420.506 352.077 422.429 351.368C424.352 350.66 425.87 351.267 427.793 351.672C429.716 352.077 432.55 352.887 438.42 351.976C444.29 351.065 445.403 352.583 450.059 349.547C454.715 346.511 463.216 344.385 466.759 340.742C470.301 337.098 472.933 335.175 472.933 335.175C472.933 335.175 474.856 339.325 474.856 339.628C474.856 339.932 471.921 341.045 471.617 341.855C471.313 342.665 466.961 342.968 466.152 344.79C465.342 346.612 464.027 349.446 464.533 350.053C465.039 350.66 465.748 349.547 465.748 349.547C465.748 349.547 465.647 351.672 466.355 351.875C467.063 352.077 467.468 351.268 467.468 351.268L467.772 348.131C467.772 348.131 468.177 351.876 468.784 351.977C469.391 352.078 470.606 351.977 470.606 351.977L470.404 348.941C470.404 348.941 472.023 350.661 474.149 349.649C476.274 348.637 480.93 350.054 482.347 348.232C483.765 346.401 485.486 345.287 484.777 340.025ZM397.185 283.565L396.072 282.267C396.35 282.267 399.78 282.267 399.78 282.267L397.185 283.565ZM450.492 317.125L448.731 317.959C448.731 317.959 446.228 315.919 445.394 316.29C444.56 316.661 443.911 317.959 443.911 317.959C443.911 317.959 441.408 315.085 439.925 314.343C438.442 313.601 431.396 307.946 428.151 305.999C424.906 304.052 421.847 302.754 420.271 302.291C418.695 301.827 413.503 299.788 413.503 299.788C413.503 299.788 410.907 296.265 409.238 294.689C407.569 293.113 402.841 288.57 402.841 288.57L399.782 285.047L402.285 285.418C402.285 285.418 404.047 288.014 405.715 288.755C407.384 289.497 408.404 289.589 408.404 289.589C408.404 289.589 416.006 295.337 417.304 296.449C418.602 297.562 426.297 302.29 428.336 303.031C430.376 303.773 437.514 306.832 437.514 306.832C437.514 306.832 449.473 311.653 449.937 311.745C450.401 311.838 453.367 312.95 453.367 312.95L450.492 317.125Z" fill="#B3B3B3"/>
<path d="M383.974 254.64C390.502 254.64 395.794 249.348 395.794 242.82C395.794 236.292 390.502 231 383.974 231C377.446 231 372.154 236.292 372.154 242.82C372.154 249.348 377.446 254.64 383.974 254.64Z" fill="#B3B3B3"/>
</svg>
