<svg width="750" height="500" viewBox="0 0 750 500" fill="none" xmlns="http://www.w3.org/2000/svg">
<g clip-path="url(#clip0_160_67)">
<path d="M750 0H0V500H750V0Z" fill="white"/>
<mask id="mask0_160_67" style="mask-type:luminance" maskUnits="userSpaceOnUse" x="0" y="0" width="750" height="500">
<path d="M750 0H0V500H750V0Z" fill="white"/>
</mask>
<g mask="url(#mask0_160_67)">
<path d="M397 528.745C640.558 528.745 838 483.419 838 427.507C838 371.595 640.558 326.269 397 326.269C153.442 326.269 -44 371.595 -44 427.507C-44 483.419 153.442 528.745 397 528.745Z" fill="#878787"/>
</g>
<path d="M470.153 179.379C473.139 179.223 473.341 179.382 474.271 182.064C475.874 186.688 475.83 191.166 473.375 195.542C472.862 196.457 472.424 197.689 472.59 198.666C473.471 203.832 474.4 209.023 476.966 213.691C477.921 215.428 479.085 217.073 480.321 218.628C484.481 223.864 487.72 229.646 490.664 235.618C493.229 240.821 496.973 245.064 501.692 248.375C505.442 251.006 509.303 253.469 512.534 256.944C514.443 255.807 515.872 256.678 517.25 257.965C519.718 260.271 522.637 261.544 526.047 261.607C526.268 261.611 526.507 261.598 526.706 261.674C530.86 263.257 535.331 262.468 539.571 263.403C541.369 263.8 542.839 263.305 544.209 262.004C546.194 260.119 548.443 258.563 551.019 257.531C551.562 257.314 552.033 256.925 552.558 256.655C554.096 255.866 554.705 254.751 554.535 252.918C554.331 250.727 554.455 248.486 554.641 246.284C554.833 244.019 554.763 241.873 553.274 239.831C552.205 239.787 550.894 240.412 549.86 239.325C548.408 237.799 547.16 236.072 546.874 234C546.574 231.824 546.736 229.585 546.697 227.374C546.696 227.301 546.686 227.192 546.727 227.159C548.457 225.77 547.315 224.07 547.218 222.495C547.169 221.687 546.997 220.888 546.893 220.083C546.412 216.354 547.277 213.104 550.001 210.346C551.34 208.991 552.392 207.347 553.534 205.804C554.556 204.423 555.964 203.722 557.559 203.235C559.387 202.677 561.233 202.132 562.981 201.374C564.461 200.732 565.913 200.402 567.492 200.697C568.678 200.918 569.696 200.624 570.511 199.736C571.445 198.718 572.502 198.691 573.741 199.124C578.01 200.616 581.797 202.918 584.681 206.376C586.614 208.694 587.593 211.645 586.885 214.669C586.123 217.921 587.174 220.974 587.324 224.117C587.337 224.382 587.502 224.763 587.712 224.876C589.346 225.759 589.484 227.398 589.603 228.903C589.788 231.246 589.868 233.622 589.696 235.962C589.55 237.944 588.846 238.382 586.703 238.486C587.273 242.056 585.606 245.058 583.839 248.389C585.171 248.123 586.122 247.819 587.086 247.773C588.109 247.724 589.183 247.772 590.167 248.035C593.985 249.054 596.943 247.478 599.629 245.043C601.616 243.242 603.738 241.735 606.299 240.782C608.258 240.053 609.782 238.581 611.011 236.87C611.528 236.151 611.973 235.381 612.469 234.646C613.64 232.911 613.68 232.896 615.917 232.881C616.037 232.8 616.211 232.744 616.267 232.63C618.534 228.015 622.006 224.233 624.907 220.057C627.838 215.837 629.82 211.145 630.559 206.026C631.564 199.062 633.041 192.227 635.616 185.659C637.069 181.952 637.611 178.105 637.358 174.143C637.193 171.565 636.981 168.99 636.809 166.412C636.712 164.948 636.218 163.693 635.105 162.69C634.558 162.198 634.094 161.615 633.582 161.083C630.283 157.66 629.748 153.392 629.964 148.941C630.058 146.997 630.295 146.876 632.333 146.373C632.541 146.322 632.735 146.217 632.986 146.118C633.262 145.294 633.482 144.435 633.832 143.633C634.524 142.048 635.58 141.479 637.214 142.037C638.064 142.327 638.706 142.244 639.509 142.002C640.172 141.803 640.964 141.881 641.669 142.005C642.825 142.21 643.961 142.538 645.096 142.844C645.443 142.938 645.89 143.04 646.075 143.295C647.527 145.299 649.962 145.886 651.812 147.319C652.961 148.209 653.661 149.116 653.632 150.61C653.593 152.603 653.692 154.597 653.701 156.591C653.709 158.386 653.48 160.146 652.483 161.695C650.981 164.028 650.532 166.628 650.597 169.32C650.729 174.783 650.909 180.246 651.136 185.706C651.429 192.751 651.047 199.727 649.209 206.569C648.326 209.857 647.595 213.146 647.771 216.6C647.912 219.351 646.962 221.857 645.311 224.019C642.882 227.2 641.507 230.829 640.49 234.629C639.032 240.079 636.759 245.196 634.185 250.19C633.635 251.257 633.24 252.201 633.523 253.516C633.908 255.304 633.188 257.056 632.236 258.548C630.691 260.966 628.977 263.279 627.278 265.594C626.013 267.318 624.653 268.971 623.345 270.664C622.737 271.451 622.354 272.307 622.643 273.339C623.986 278.142 623.567 283.027 623.101 287.867C622.536 293.74 621.875 299.62 620.856 305.427C620.171 309.329 619.029 313.195 617.664 316.921C615.91 321.708 615.25 326.631 614.814 331.646C613.809 343.224 614.461 354.799 614.743 366.377C614.797 368.586 614.783 370.8 614.696 373.007C614.618 374.993 613.64 376.034 611.704 376.572C607.753 377.67 603.713 378.091 599.648 377.82C594.031 377.446 588.439 377.801 582.832 377.952C575.382 378.153 567.925 378.136 560.472 378.133C553.683 378.131 546.894 378.027 540.105 377.956C539.072 377.945 538.025 377.963 537.011 377.801C535.877 377.62 535.433 377.034 535.731 375.927C536.003 374.914 535.643 374.072 535.52 373.141C535.143 370.293 534.743 367.431 534.651 364.564C534.438 357.923 534.578 351.267 534.228 344.636C534.015 340.601 533.191 336.593 532.554 332.588C532.419 331.742 531.98 330.912 531.55 330.149C526.758 321.628 522.811 312.732 519.804 303.432C519.265 301.765 518.949 299.985 518.824 298.236C518.712 296.666 518.092 295.604 516.823 294.776C515.279 293.768 513.752 292.731 512.259 291.65C509.933 289.965 507.591 288.295 505.352 286.498C503.649 285.131 502.473 283.383 502.121 281.122C502.019 280.468 501.519 279.818 501.059 279.289C498.06 275.835 494.974 272.455 492.019 268.965C490.833 267.565 489.877 265.964 488.869 264.421C487.238 261.923 485.329 259.676 482.886 257.953C479.931 255.868 477.92 253.189 477.087 249.628C476.347 246.463 474.349 243.916 472.683 241.233C468.62 234.691 466.197 227.529 464.241 220.144C462.919 215.155 461.344 210.233 459.842 205.292C459.296 203.495 458.345 201.924 456.877 200.702C454.919 199.071 453.902 196.893 453.251 194.491C452.788 192.784 452.301 191.082 451.766 189.397C451.471 188.468 451.56 187.635 452.16 186.893C453.179 185.633 454.233 184.401 455.281 183.165C455.471 182.942 455.846 182.786 455.897 182.548C456.44 180.006 458.868 179.476 460.549 178.162C460.994 177.814 461.6 177.476 462.132 177.475C463.344 177.472 464.354 177.201 465.371 176.477C466.363 175.77 467.404 176.06 468.366 177.005C468.731 177.364 469.019 177.804 469.329 178.217C469.599 178.572 469.844 178.939 470.153 179.379Z" fill="#878787"/>
<path d="M349.95 220.428C349.967 219.919 350.052 219.439 349.989 218.979C349.386 214.563 351.76 211.314 354.322 208.21C355.634 206.62 357.241 205.271 358.734 203.834C359.148 203.435 359.587 202.915 360.098 202.788C362.568 202.174 365.069 201.687 367.553 201.127C368.349 200.947 369.18 200.789 369.9 200.43C371.441 199.661 372.98 199.207 374.718 199.629C375.357 199.784 376.049 199.812 376.709 199.774C378.563 199.667 379.923 200.333 380.832 202.007C381.18 202.649 381.706 203.276 382.305 203.685C384.43 205.136 385.728 207.458 388.083 208.75C389.326 209.432 390.086 211.128 390.859 212.483C391.294 213.245 391.533 214.261 391.476 215.137C391.216 219.141 392.236 222.882 393.7 226.625C394.351 226.961 395.389 227.177 395.823 227.808C396.281 228.474 396.186 229.534 396.292 230.427C396.833 234.993 395.198 239.137 393.756 243.312C392.847 245.944 391.672 248.378 389.275 250.077C388.699 250.485 388.377 251.466 388.246 252.237C388.024 253.544 387.95 254.897 388.005 256.223C388.034 256.922 388.317 257.728 388.753 258.269C389.638 259.365 390.664 260.358 391.707 261.312C393.246 262.719 394.796 264.126 396.439 265.406C399.531 267.816 401.806 270.83 403.646 274.269C404.46 275.791 405.729 277.066 406.746 278.485C409.275 282.018 410.512 286.08 411.405 290.257C412.486 295.306 413.648 300.345 414.481 305.436C416.118 315.45 416.309 325.517 415.25 335.622C415.019 337.821 415.451 340.082 415.412 342.311C415.299 348.813 413.791 355.02 411.326 361.022C409.751 364.857 406.746 367.37 403.41 369.473C396.431 373.874 388.791 376.745 380.797 378.685C378.044 379.353 375.223 379.761 372.498 380.523C370.51 381.079 368.543 381.855 366.72 382.823C363.037 384.777 359.507 387.02 355.817 388.958C354.146 389.835 352.285 390.474 350.435 390.856C347.728 391.415 345.362 390.535 344.139 387.932C342.512 384.468 341.096 380.902 339.651 377.355C337.26 371.488 334.871 365.619 332.578 359.713C331.706 357.466 330.974 355.145 330.402 352.804C328.956 346.886 327.494 340.965 326.32 334.99C325.648 331.57 325.196 328.039 325.227 324.564C325.286 317.999 324.437 311.598 322.954 305.232C321.645 299.616 321.808 293.992 323.178 288.383C323.752 286.034 324.177 283.647 324.61 281.266C325.555 276.078 324.925 270.965 323.891 265.857C322.712 260.035 322.096 254.136 322.083 248.199C322.073 243.945 320.932 239.952 319.711 235.961C319.15 234.128 318.395 232.355 317.826 230.524C317.227 228.597 316.799 226.669 317.817 224.679C318.125 224.077 318.064 223.206 317.963 222.488C317.166 216.827 317.328 211.179 317.999 205.519C318.672 199.849 318.329 194.21 317.646 188.539C316.191 176.443 314.718 164.338 313.786 152.196C313.375 146.843 314.143 141.38 314.593 135.985C315.136 129.486 315.081 122.993 314.903 116.489C314.854 114.694 314.465 112.824 316.08 111.344C316.413 111.039 316.328 110.248 316.385 109.676C316.648 107.023 316.955 104.372 317.122 101.712C317.225 100.065 317.349 98.355 317.037 96.757C316.28 92.882 316.285 89.171 317.962 85.489C318.411 84.504 318.285 83.213 318.263 82.066C318.215 79.569 318.919 78.57 321.24 77.85C323.7 77.087 326.148 76.277 328.57 75.402C329.869 74.933 331.092 74.844 332.474 75.097C334.31 75.433 336.17 75.539 338.09 75.15C339.493 74.866 341.097 75 342.477 75.404C343.248 75.63 344.089 76.704 344.292 77.544C344.674 79.119 345.261 80.259 346.829 80.926C347.904 81.382 348.339 82.414 348.302 83.615C348.234 85.784 348.153 87.954 348.151 90.124C348.149 92.429 347.127 94.148 345.221 95.325C343.804 96.2 342.305 96.943 340.834 97.729C339.469 98.458 338.464 99.445 337.799 100.911C336.425 103.938 334.408 106.703 334.042 110.126C333.95 110.99 334.124 111.893 334.25 112.767C334.509 114.566 335.075 116.359 335.06 118.151C335.009 124.154 334.583 130.158 334.653 136.157C334.692 139.474 335.438 142.783 335.858 146.096C336.676 152.556 337.547 159.009 338.272 165.479C338.541 167.874 338.54 170.309 338.524 172.724C338.49 177.89 339.712 182.814 341.25 187.683C344.373 197.568 346.909 207.588 348.274 217.881C348.416 218.937 348.374 220.124 349.95 220.428Z" fill="#878787"/>
<path d="M289.815 175.715C288.237 174.329 286.566 173.097 285.157 171.486C284.453 170.681 283.157 170.42 282.6 169.249C282.401 168.831 281.732 168.634 281.274 168.342C280.7 167.975 280.064 167.681 279.558 167.238C278.191 166.041 277.316 165.824 275.75 166.695C274.875 167.182 274.077 167.848 273.339 168.536C270.516 171.167 270.563 171.364 268.864 174.932C267.538 177.717 267.606 180.292 268.862 183.052C269.96 185.467 270.937 187.962 271.668 190.508C272.06 191.873 272.027 193.45 271.821 194.879C271.374 197.973 270.744 201.043 270.095 204.104C268.193 213.071 266.189 222.005 262.391 230.429C261.301 232.847 260.552 235.424 259.713 237.95C259.372 238.977 258.879 239.625 257.788 240.053C252.102 242.283 246.46 244.628 240.803 246.932C240.441 247.08 240.09 247.298 239.714 247.361C235.839 248.009 232.499 249.92 229.2 251.881C227.107 253.125 224.936 253.789 222.495 253.575C221.801 253.514 221.023 253.452 220.402 253.694C220.229 253.761 220.06 253.812 219.891 253.859C218.278 252.688 216.663 251.519 215.06 250.336C214.513 249.932 214.05 249.391 213.624 248.852C212.283 247.156 211.003 245.411 209.653 243.722C207.806 241.411 207.905 240.533 210.417 238.96C212.095 237.909 213.517 236.611 214.401 234.845C216.102 231.449 216.653 227.795 216.498 224.035C216.467 223.294 216.313 222.241 215.821 221.896C214.339 220.857 214.465 219.425 214.416 217.972C214.247 213.013 213.806 208.091 212.003 203.409C210.757 200.173 209.434 196.966 208.128 193.753C207.577 192.396 206.958 192.049 205.427 192.164C205.068 192.191 204.712 192.259 204.348 192.31C204.224 191.958 204.118 191.751 204.079 191.533C203.551 188.609 202.733 188.23 200.266 189.757C199.565 190.191 198.84 190.584 198.092 191.015C197.104 188.313 196.681 188.178 194.357 189.539C193.18 190.228 191.969 190.86 190.748 191.531C189.672 188.923 189.092 188.784 187.209 190.427C186.918 190.681 186.637 190.948 186.354 191.212C183.529 193.846 180.77 196.554 177.864 199.097C174.467 202.07 172.481 205.613 172.714 210.227C172.772 211.384 172.822 212.542 172.864 213.7C172.927 215.447 172.98 217.195 173.037 218.955C170.223 218.811 169.714 219.196 169.383 221.746C169.213 223.048 169.171 224.367 169.065 225.677C168.916 227.512 169.42 229.208 170.233 230.813C171.872 234.047 173.555 237.26 175.186 240.416C173.991 242.905 173.981 242.87 171.709 243.485C170.827 243.724 170.004 244.171 169.145 244.499C168.87 244.604 168.596 244.713 168.321 244.822C167.771 244.629 167.119 244.606 166.522 244.599C164.071 244.572 161.976 243.7 160.015 242.257C156.924 239.983 153.787 237.755 149.994 236.73C149.625 236.63 149.298 236.378 148.952 236.196C143.548 233.349 138.163 230.464 132.722 227.688C131.678 227.155 131.251 226.462 131.012 225.407C130.424 222.811 129.931 220.174 129.083 217.66C126.127 208.905 125.007 199.818 123.991 190.707C123.644 187.598 123.318 184.48 123.176 181.358C123.11 179.916 123.232 178.344 123.756 177.023C124.732 174.561 125.949 172.173 127.278 169.877C128.797 167.253 129.118 164.697 128.07 161.796C126.728 158.08 126.794 157.887 124.242 154.993C123.575 154.237 122.847 153.495 122.023 152.925C120.549 151.905 119.657 152.035 118.18 153.093C117.633 153.485 116.971 153.715 116.364 154.024C115.88 154.27 115.195 154.401 114.956 154.797C114.287 155.908 112.972 156.04 112.192 156.773C110.632 158.239 108.849 159.301 107.143 160.526C105.099 161.994 104.814 164.249 105.614 166.676C106.987 170.836 108.274 175.026 109.557 179.215C110.28 181.575 110.305 183.956 109.929 186.416C109.04 192.236 108.614 198.092 109.202 203.984C109.793 209.908 110.304 215.841 110.944 221.76C111.456 226.496 111.59 231.276 113.232 235.866C114.171 238.492 115.583 240.363 118.169 241.444C119.374 241.948 120.62 242.604 121.537 243.506C124.936 246.849 128.535 250.009 131.451 253.82C131.878 254.378 132.373 254.887 132.862 255.394C136.447 259.11 140.196 262.661 143.134 266.977C144.109 268.41 145.716 269.436 147.109 270.556C150.338 273.152 154.037 275.311 156.759 278.351C157.883 279.607 158.94 280.932 159.932 282.311C158.901 286.878 157.723 291.42 156.479 295.95C155.49 304.826 154.932 313.767 152.494 322.305C151.903 326.154 151.318 330.004 150.86 333.869C150.443 337.39 150.471 340.962 150.245 344.508C150.044 347.666 149.753 350.818 149.534 353.975C149.354 356.579 149.185 359.184 149.076 361.791C148.911 365.723 148.661 369.659 148.713 373.589C148.757 376.933 150.564 378.707 153.895 378.974C155.888 379.134 157.91 378.926 159.906 379.066C164.84 379.413 169.763 379.9 174.696 380.256C176.614 380.395 178.557 380.466 180.471 380.326C182.824 380.154 184.756 379.128 185.89 376.893C186.332 376.023 186.914 375.224 187.551 374.203C187.865 375.086 188.118 375.713 188.311 376.358C189.131 379.099 191.1 380.422 193.821 380.507C198.293 380.647 202.756 381.411 207.248 380.706C209.686 380.323 212.227 380.357 214.576 379.691C218.804 378.492 220.184 377.917 220.954 373.403C221.497 370.22 221.785 366.973 221.915 363.743C222.085 359.498 221.886 355.239 222.026 350.992C222.253 344.045 222.621 337.102 222.938 330.158C223.008 328.636 223.082 327.111 223.159 325.548C222.875 325.117 222.699 324.586 222.728 323.93C223.166 314.259 223.039 304.59 222.806 294.92C224.631 292.453 226.683 290.171 228.917 288.122C231.924 285.363 235.816 283.576 239.284 281.309C240.779 280.331 242.479 279.467 243.59 278.136C246.936 274.128 251.015 270.96 254.946 267.613C255.483 267.156 256.025 266.698 256.505 266.185C259.78 262.678 263.671 259.885 267.381 256.89C268.382 256.082 269.686 255.551 270.935 255.168C273.614 254.345 275.202 252.62 276.394 250.099C278.477 245.692 279.079 240.948 280.051 236.284C281.266 230.456 282.356 224.602 283.523 218.764C284.684 212.958 284.834 207.088 284.518 201.209C284.385 198.724 284.642 196.357 285.592 194.079C287.279 190.035 288.97 185.992 290.743 181.986C291.769 179.648 291.706 177.376 289.815 175.715Z" fill="#878787"/>
<mask id="mask1_160_67" style="mask-type:luminance" maskUnits="userSpaceOnUse" x="0" y="0" width="750" height="500">
<path d="M750 0H0V500H750V0Z" fill="white"/>
</mask>
<g mask="url(#mask1_160_67)">
<path d="M375 574.95C600.332 574.95 783 539.816 783 496.475C783 453.134 600.332 418 375 418C149.668 418 -33 453.134 -33 496.475C-33 539.816 149.668 574.95 375 574.95Z" fill="#3E3E3E"/>
</g>
<path d="M213.947 446.491C209.334 448.869 204.873 449.463 200.322 449.79C194.472 450.21 188.642 450.975 182.787 451.222C173.725 451.604 164.614 452.401 155.704 449.711C149.204 447.748 142.642 446.667 135.811 447.944C133.919 448.298 131.875 447.836 129.502 447.73C129.736 446.175 129.763 444.862 130.15 443.667C130.902 441.348 130.901 439.029 130.69 436.648C130.148 430.519 129.996 424.335 129.093 418.262C127.551 407.889 126.091 397.486 121.518 387.801C119.201 382.892 118.852 377.38 118.353 372.007C118.156 369.888 117.583 367.984 116.596 366.086C113.802 360.714 111.21 355.237 108.471 349.836C105.754 344.478 102.203 339.578 98.0511 335.375C94.5841 331.865 89.9891 329.477 85.9371 326.534C84.1891 325.265 82.1881 324.12 80.9261 322.448C77.1221 317.41 72.3851 313.344 67.8361 309.069C67.2151 308.486 66.5871 307.9 66.0381 307.252C62.2911 302.823 57.7581 299.22 53.4561 295.384C52.2951 294.349 50.7521 293.631 49.2671 293.094C46.0811 291.941 44.2651 289.765 42.9751 286.65C40.7201 281.205 40.2751 275.441 39.3771 269.752C38.2541 262.643 37.2851 255.509 36.2211 248.39C35.1631 241.31 35.3301 234.214 36.0591 227.133C36.3671 224.14 36.1961 221.266 35.1841 218.459C33.3861 213.476 31.5841 208.494 29.6801 203.551C28.5691 200.668 28.7801 197.928 31.1621 196.035C33.1501 194.455 35.2401 193.067 37.0371 191.204C37.9351 190.273 39.5151 190.035 40.2571 188.654C40.5221 188.161 41.3421 187.963 41.9121 187.637C42.6271 187.228 43.4131 186.911 44.0501 186.405C45.7711 185.04 46.8411 184.831 48.6811 185.975C49.7091 186.615 50.6331 187.467 51.4831 188.341C54.7361 191.685 54.6681 191.921 56.5081 196.329C57.9451 199.77 57.7091 202.875 56.0301 206.134C54.5611 208.985 53.2331 211.94 52.2001 214.971C51.6461 216.597 51.5921 218.503 51.7571 220.24C52.1141 224.002 52.6921 227.747 53.2951 231.481C55.0611 242.422 56.9521 253.328 61.0391 263.726C62.2121 266.711 62.9641 269.866 63.8271 272.966C64.1781 274.226 64.7351 275.038 66.0271 275.619C72.7611 278.648 79.4351 281.814 86.1291 284.931C86.5581 285.131 86.9681 285.415 87.4191 285.514C92.0601 286.527 95.9801 289.031 99.8471 291.594C102.301 293.22 104.883 294.15 107.844 294.037C108.685 294.005 109.629 293.976 110.365 294.305C113.318 295.624 115.937 294.289 118.071 292.81C122.106 290.013 126.623 289.301 131.225 288.861C135.076 288.492 138.972 288.588 142.848 288.475C143.226 288.464 143.612 288.477 143.98 288.404C145.346 288.132 145.746 287.381 145.092 286.169C144.465 285.005 143.771 283.871 143.034 282.773C141.543 280.554 140.401 278.205 139.732 275.59C139.206 273.533 138.887 273.454 136.691 273.779C134.22 274.145 132.747 273.582 131.992 271.22C130.961 267.995 130.273 264.646 129.637 261.313C129.203 259.037 130.102 257.222 132.481 256.291C132.349 255.639 132.33 255.064 132.116 254.574C131.183 252.436 130.731 250.28 131.364 247.95C131.556 247.243 131.539 246.419 131.393 245.693C130.995 243.719 131.434 242.023 132.442 240.278C133.014 239.287 133.171 237.926 133.141 236.742C133.061 233.63 134.013 231.168 136.868 229.647C137.033 229.559 137.21 229.449 137.317 229.303C139.746 225.979 143.389 224.019 146.312 221.26C148.03 219.638 149.763 218.621 152.14 219.456C153.303 219.865 154.38 219.763 155.369 219.05C156.804 218.016 158.193 218.254 159.621 219.068C160.189 219.392 160.848 219.848 161.431 219.802C163.388 219.648 164.828 220.291 166.202 221.723C166.781 222.326 168.138 222.354 169.138 222.343C170.99 222.323 172.39 223.03 173.662 224.32C174.648 225.32 175.83 226.124 176.907 227.037C177.41 227.463 178.067 227.852 178.317 228.409C179.622 231.318 181.692 233.876 182.083 237.217C182.312 239.173 182.873 241.11 183.47 242.998C184.301 245.626 184.464 248.179 183.345 250.758C183.046 251.447 182.896 252.2 182.6 253.182C185.543 255.876 185.175 259.249 184.036 262.752C183.775 263.554 183.701 264.418 183.554 265.256C182.902 268.945 182.253 269.547 178.741 269.742C178.501 271.62 178.011 273.502 178.105 275.355C178.177 276.775 178.76 278.299 179.524 279.521C180.517 281.109 181.915 282.444 182.864 283.564C185.025 283.98 186.879 284.211 188.658 284.71C191.262 285.44 193.606 285.499 195.885 283.654C197.025 282.731 198.561 282.274 199.954 281.692C201.833 280.908 203.374 279.772 204.624 278.128C206.342 275.869 208.21 273.725 210.028 271.543C210.45 271.036 210.873 270.502 211.39 270.105C218.103 264.948 223.606 258.52 229.748 252.768C232.263 250.413 233.399 248.231 232.774 244.712C232.218 241.581 232.533 238.289 232.537 235.067C232.549 226.216 231.141 217.523 229.588 208.855C228.621 203.459 227.479 198.092 226.299 192.737C226.045 191.583 225.477 190.383 224.725 189.476C222.858 187.222 220.812 185.115 218.816 182.969C217.849 181.93 216.815 180.953 215.844 179.917C214.553 178.54 214.023 176.856 213.913 174.998C213.796 173.022 213.576 171.05 213.513 169.072C213.49 168.347 213.644 167.54 213.967 166.895C214.85 165.129 215.835 163.412 216.836 161.708C218.45 158.959 219.564 158.585 222.665 159.54C223.275 159.728 224.009 159.551 224.593 159.779C227.393 160.874 230.574 160.915 233.071 162.877C233.536 163.242 234.24 163.469 234.836 163.474C238.766 163.512 241.453 165.957 241.583 169.868C241.642 171.66 241.333 173.462 241.362 175.256C241.438 180.076 241.505 184.9 241.798 189.709C241.887 191.165 242.543 192.657 243.211 193.996C247.779 203.146 250.503 212.863 252.356 222.873C253.735 230.321 255.437 237.715 256.632 245.19C257.193 248.7 256.97 252.347 256.963 255.932C256.959 257.728 256.016 259.259 254.617 260.314C251.474 262.685 249.909 266.123 247.935 269.356C244.956 274.236 243.22 279.676 240.513 284.662C239.385 286.74 238.24 288.816 237.252 290.961C236.226 293.189 235.266 295.462 234.485 297.785C233.476 300.79 232.003 303.435 229.959 305.897C227.426 308.948 224.915 312.117 223.04 315.584C221.263 318.87 220.263 322.588 219.021 326.15C217.07 331.744 216.823 337.64 216.011 343.443C214.924 351.213 213.655 358.96 212.284 366.685C211.226 372.647 209.875 378.556 208.694 384.496C208.53 385.323 208.553 386.195 208.561 387.046C208.64 396.14 208.686 405.235 208.841 414.327C208.92 418.966 209.04 423.616 209.458 428.233C209.677 430.65 210.577 433.006 211.172 435.389C212.086 439.049 213.002 442.709 213.947 446.491Z" fill="#3E3E3E"/>
<path d="M684.881 185.49C684.605 183.977 684.293 182.621 684.134 181.246C684.047 180.489 684.093 179.666 684.305 178.938C684.559 178.064 685.305 177.728 686.178 178.081C686.735 178.306 687.317 178.602 687.732 179.02C691.01 182.321 695.198 182.336 699.401 182.318C699.923 182.316 700.445 182.234 700.968 182.228C703.648 182.197 704.807 183.097 705.35 185.714C705.97 188.699 706.535 191.695 707.131 194.684C707.807 198.075 707.57 201.459 706.984 204.823C706.602 207.013 706.722 209.097 707.316 211.268C707.738 212.808 707.864 214.59 707.546 216.146C705.943 223.985 705.701 231.865 706.138 239.827C706.537 247.087 705.677 254.273 704.244 261.396C703.248 266.348 702.287 271.309 701.405 276.283C700.756 279.946 699.453 283.325 697.449 286.442C695.516 289.449 693.643 292.5 691.582 295.418C690.638 296.755 690.437 298.022 690.687 299.575C691.476 304.476 692.156 309.393 692.895 314.302C693.329 317.186 692.371 319.576 690.477 321.718C688.114 324.39 685.854 327.154 683.502 329.837C679.915 333.928 677.276 338.649 674.49 343.272C671.746 347.824 669.038 352.399 666.383 357.003C665.885 357.866 665.545 358.893 665.416 359.882C664.729 365.147 664.118 370.422 663.511 375.697C663.003 380.109 662.509 384.523 662.058 388.942C661.531 394.104 660.281 399.042 657.949 403.71C654.573 410.467 653.482 417.781 652.93 425.209C652.607 429.562 652.263 433.881 650.203 437.889C648.405 441.387 645.463 443.869 642.929 446.729C639.388 450.725 634.641 452.088 629.7 452.832C624.016 453.688 618.266 454.095 612.567 454.857C606.264 455.7 599.965 456.615 593.704 457.72C590.907 458.214 588.206 459.248 585.57 460.006C583.907 459.068 583.714 457.581 583.647 456.085C583.511 453.042 583.42 449.996 583.343 446.95C583.167 439.965 582.517 433.023 580.994 426.204C579.141 417.909 578.193 409.559 578.639 401.055C578.948 395.164 577.803 389.411 576.593 383.705C574.943 375.928 573.475 368.131 573.949 360.152C574.274 354.676 574.992 349.223 575.58 343.765C575.953 340.3 576.653 336.851 576.743 333.383C576.802 331.099 576.405 328.649 575.572 326.525C572.708 319.229 569.562 312.043 566.52 304.817C565.81 303.131 565.083 301.452 564.37 299.767C563.262 297.148 562.876 294.395 563.056 291.585C563.293 287.886 563.026 284.357 561.397 280.889C559.847 277.589 558.774 274.064 557.512 270.63C556.193 267.043 556.03 263.357 556.269 259.558C556.537 255.3 556.471 251.018 556.46 246.747C556.439 238.683 557.375 230.763 559.438 222.948C561.198 216.284 562.534 209.529 562.361 202.567C562.297 200.005 562.844 197.62 564.184 195.328C564.937 194.04 565.286 192.346 565.304 190.829C565.361 186.019 566.486 181.53 568.611 177.237C569.42 175.602 570.027 173.866 570.701 172.167C571.758 169.506 573.37 168.444 575.994 169.359C579.032 170.418 582.177 170.292 585.263 170.739C587.16 171.014 588.629 171.696 589.373 173.478C589.96 174.883 590.764 176.061 591.968 177.001C593.147 177.921 593.47 179.062 592.731 180.461C591.96 181.92 591.317 183.448 590.518 184.891C589.547 186.642 588.349 188.276 587.466 190.067C585.988 193.066 583.87 195.429 580.958 197.012C578.231 198.494 577.399 200.94 577.394 203.741C577.385 208.798 577.619 213.855 577.591 218.911C577.559 224.659 577.32 230.406 577.231 236.154C577.145 241.644 577.135 247.134 577.094 252.624C577.078 254.709 577.108 256.795 577.038 258.878C577.004 259.889 577.183 260.638 577.993 261.401C580.88 264.12 583.007 267.373 584.54 271.053C587.388 277.887 590.159 284.763 593.326 291.449C594.864 294.697 597.334 297.429 601.472 297.469C601.984 297.474 602.728 297.187 602.951 296.798C603.184 296.391 602.937 295.695 602.857 295.132C602.836 294.983 602.667 294.843 602.545 294.721C600.196 292.382 599.183 289.48 599.068 286.133C597.57 285.563 596.433 284.741 596.568 282.919C596.592 282.597 596.065 282.247 595.824 281.89C593.955 279.118 593.76 276.24 595.26 273.24C595.956 271.847 596.601 270.428 597.265 269.03C597.004 268.601 596.874 268.271 596.648 268.032C594.983 266.267 594.882 264.198 595.909 262.216C596.975 260.161 597.579 257.797 599.581 256.274C600.409 255.644 600.384 254.671 600.198 253.64C599.489 249.7 601.163 247.701 605.167 247.566C605.429 247.557 605.715 247.477 605.948 247.554C608.659 248.455 610.669 246.78 612.594 245.473C614.754 244.007 616.82 243.15 619.42 243.932C619.921 244.083 620.623 243.907 621.124 243.662C624.37 242.075 627.515 242.631 630.741 243.81C632.919 244.606 635.183 245.34 637.469 245.632C643.287 246.374 647.17 252.33 644.576 257.384C644.99 257.857 645.423 258.38 645.885 258.876C647.642 260.758 648.554 262.905 648.205 265.543C648.033 266.843 648.378 268.033 648.967 269.283C649.966 271.405 650.464 273.681 650.169 276.137C649.869 278.634 650.005 281.18 649.821 283.695C649.666 285.804 648.977 287.742 647.739 289.522C646.08 291.908 645.616 295.073 646.052 299.304C646.186 299.404 646.324 299.595 646.455 299.59C649.999 299.458 653.55 299.398 657.078 299.089C657.868 299.02 658.781 298.209 659.295 297.493C663.469 291.691 667.6 285.857 671.662 279.976C673.877 276.77 676.576 274.1 679.844 272.012C680.626 271.512 681.147 271.016 681.341 270.049C682.078 266.378 682.992 262.742 683.688 259.064C684.983 252.219 686.104 245.341 687.427 238.501C688.353 233.715 689.486 228.968 690.54 224.207C691.087 221.739 691.805 219.299 692.179 216.806C692.458 214.947 692.397 213.019 692.303 211.13C692.274 210.534 691.77 209.829 691.281 209.408C687.774 206.384 685.799 202.506 684.646 198.096C684.118 196.078 683.288 194.142 682.694 192.139C681.533 188.205 681.664 187.873 684.881 185.49ZM596.454 276.37C596.154 278.232 596.366 279.378 597.412 280.395C599.025 278.691 597.374 277.932 596.454 276.37ZM602.07 251.289C603.245 251.654 603.815 251.227 603.732 249.943C603.178 250.392 602.624 250.84 602.07 251.289Z" fill="#3E3E3E"/>
<path d="M465.556 293.729C463.792 289.634 462.01 285.545 459.343 281.942C458.572 280.9 458.263 279.939 458.401 278.644C458.978 273.248 458.871 267.864 457.969 262.493C457.515 259.792 457.111 257.062 456.975 254.331C456.56 245.943 456.25 237.549 455.975 229.156C455.867 225.86 455.264 222.683 454.214 219.576C452.539 214.622 450.725 209.711 449.199 204.711C446.557 196.056 442.224 188.358 436.736 181.208C432.301 175.43 428.035 169.516 423.841 163.559C421.096 159.661 419.02 155.36 418.886 150.502C418.733 144.937 418.912 139.362 419.027 133.792C419.041 133.109 419.376 132.259 419.858 131.789C422.433 129.275 424.962 126.681 427.767 124.44C434.218 119.284 440.348 113.824 445.243 107.128C447.418 104.153 449.482 101.034 450.038 97.2851C450.504 94.1411 449.867 91.2941 446.903 89.4411C444.802 88.1271 442.49 87.511 440.047 87.603C437.848 87.685 435.657 88.0001 433.368 88.2221C433.368 87.6331 433.327 86.9691 433.379 86.3131C433.434 85.6311 433.624 84.9601 433.676 84.2791C433.921 81.0991 433.348 80.304 430.34 79.6C418.154 76.752 405.984 73.8291 393.773 71.0951C388.007 69.8041 382.168 68.8351 376.346 67.8051C373.834 67.3611 372.944 67.939 371.942 70.255C371.402 71.505 370.897 72.7711 370.368 74.0491C368.162 72.8251 366.306 71.545 364.267 70.713C359.191 68.641 353.227 71.0541 350.687 75.9011C349.653 77.8741 349.367 79.9571 349.29 82.1C349.115 86.9791 350.1 91.6741 351.947 96.1521C355.9 105.734 359.978 115.266 363.99 124.823C365.523 128.475 366.804 132.161 366.404 136.258C366.248 137.856 366.705 139.503 366.694 141.127C366.678 143.421 366.624 145.732 366.336 148.003C365.992 150.721 365.173 153.386 364.934 156.107C364.462 161.49 362.927 166.531 360.609 171.362C356.969 178.949 353.707 186.688 351.249 194.744C349.274 201.217 347.055 207.64 345.555 214.224C344.434 219.146 343.532 224.107 342.109 228.972C340.927 233.012 340.626 237.205 340.721 241.449C340.799 244.944 340.513 248.456 340.234 251.948C340.086 253.79 339.607 255.605 339.263 257.515C337.868 257.515 336.767 257.54 335.667 257.509C334.183 257.466 333.189 258.097 332.796 259.546C332.595 260.286 332.363 261.045 332.343 261.801C332.286 263.857 332.275 265.918 332.356 267.973C332.47 270.883 332.898 273.795 332.813 276.694C332.576 284.786 332.828 292.819 334.932 300.688C335.882 304.243 336.776 307.834 338.058 311.273C339.851 316.085 341.979 320.772 343.97 325.51C347.003 332.727 349.529 340.039 349.426 348.043C349.318 356.44 349.721 364.837 348.627 373.217C347.695 380.355 346.738 387.524 346.465 394.706C346.061 405.329 346.274 415.976 346.185 426.612C346.136 432.438 346.026 438.264 345.903 444.089C345.862 446.034 347.243 447.913 349.324 448.309C350.405 448.515 351.543 448.485 352.653 448.464C358.309 448.356 363.965 448.185 369.621 448.097C376.819 447.984 384.019 447.926 391.218 447.847C395.074 447.804 398.929 447.735 402.785 447.733C408.873 447.73 414.983 447.452 421.042 447.873C429.567 448.466 437.963 447.902 446.334 446.399C447.917 446.115 448.754 445.262 448.725 443.859C448.682 441.805 448.675 439.737 448.427 437.703C447.796 432.525 446.943 427.373 446.368 422.19C445.991 418.791 445.596 415.331 445.836 411.942C446.157 407.421 447.057 402.939 447.765 398.449C448.476 393.939 448.576 389.429 448.382 384.863C448.201 380.594 448.111 376.237 448.752 372.036C450.016 363.748 451.525 355.48 454.036 347.442C454.444 346.135 454.76 344.792 455.013 343.446C455.835 339.064 456.352 334.608 457.451 330.298C460.055 320.083 462.915 309.933 465.697 299.764C466.257 297.722 466.426 295.747 465.556 293.729ZM415.888 126.27C420.281 120.249 424.719 114.237 427.41 107.21C428.999 103.061 430.398 98.8291 431.636 94.5631C432.129 92.8661 433.064 92.1021 434.605 91.9011C435.872 91.7361 437.178 91.6501 438.447 91.7581C441.837 92.0481 443.572 94.6201 442.685 97.9151C441.705 101.553 439.589 104.584 437.298 107.463C432.497 113.497 427.033 118.924 421.507 124.286C420.046 125.704 418.6 127.138 417.027 128.683C416.453 128.046 416.019 127.565 415.607 127.108C415.727 126.739 415.748 126.461 415.888 126.27ZM357.736 93.573C356.558 90.095 355.689 86.5121 354.697 82.9711C354.583 82.5631 354.59 82.1211 354.545 81.6951C354.278 79.1841 355.041 76.983 357.159 75.645C359.197 74.358 361.532 74.6201 363.497 75.9181C365.269 77.0881 366.891 78.5301 368.391 80.0401C368.867 80.5191 368.905 81.6101 368.858 82.4041C368.549 87.6221 368.067 92.8321 367.82 98.0531C367.389 107.162 368.091 116.19 370.123 125.098C370.468 126.608 370.457 126.611 369.414 127.445C365.487 116.081 361.554 104.846 357.736 93.573ZM419.094 289.894C417.288 288.83 417.012 287.386 417.484 285.355C417.98 283.223 418.787 281.367 420.003 279.562C422.14 276.39 424.091 273.091 426.119 269.846C426.473 277.494 423.169 283.835 419.094 289.894ZM430.554 232.202C429.429 240.868 428.132 249.511 426.899 258.173C424.722 258.027 424.797 258.016 424.488 255.853C423.955 252.124 423.541 248.357 422.678 244.701C420.821 236.835 415.824 232.042 408.021 229.74C401.264 227.747 395.502 229.172 390.332 233.615C389.124 234.653 388.096 236.003 387.291 237.388C385.571 240.346 384.042 243.416 382.461 246.453C382.228 246.901 382.054 247.413 381.992 247.913C381.185 254.444 379.615 260.901 380.16 267.566C380.271 268.921 379.926 270.31 380 271.672C380.073 273.012 380.442 274.332 380.626 275.669C381.042 278.705 381.424 281.745 381.819 284.784C380.276 287.672 379.532 291.077 376.291 293.233C374.323 289.5 371.703 286.168 371.346 281.852C371.083 278.677 370.243 275.848 368.011 273.438C366.701 272.023 366.53 270.235 367.306 268.38C368.908 264.549 368.865 260.514 368.648 256.473C368.377 251.426 368.089 246.379 367.783 241.334C367.602 238.338 367.406 235.343 367.154 232.352C366.877 229.067 367.035 225.819 368.164 222.711C370.806 215.434 371.599 207.898 371.723 200.215C371.846 192.568 373.019 185.016 374.274 177.485C374.428 176.563 374.59 175.642 374.802 174.413C375.778 174.823 376.603 175.21 377.455 175.522C385.081 178.317 392.682 178.56 400.214 175.198C401.064 174.819 401.877 174.279 402.581 173.669C404.159 172.3 405.02 170.651 404.531 168.434C403.792 165.09 403.397 161.653 402.421 158.385C401.801 156.306 400.404 154.456 399.338 152.513C398.876 151.671 398.247 150.847 399.447 150.176C401.902 153.601 404.322 156.8 406.55 160.127C410.048 165.351 412.895 170.885 414.426 177.056C416.055 183.625 417.71 190.196 419.661 196.674C420.591 199.762 422.052 202.734 423.591 205.587C426.836 211.598 429.091 217.981 430.679 224.563C431.258 226.964 430.882 229.68 430.554 232.202Z" fill="#3E3E3E"/>
</g>
<defs>
<clipPath id="clip0_160_67">
<rect width="750" height="500" fill="white"/>
</clipPath>
</defs>
</svg>
