<svg width="48" height="52" viewBox="0 0 48 52" fill="none" xmlns="http://www.w3.org/2000/svg">
<path d="M0 25.5635V0H24H48V25.5635V51.127H24H0V25.5635ZM46.9055 45.342V40.6515H24.0782H1.25082V45.342V50.0326H24.0782H46.9055V45.342ZM7.66124 48.3127C7.53225 48.2293 7.03077 48.1601 6.54683 48.1587C5.9314 48.157 5.60423 48.0808 5.45827 47.9049C5.28097 47.6913 5.29434 47.6207 5.54718 47.4358C5.71086 47.3162 6.08275 47.2182 6.37359 47.2182C6.79173 47.2182 6.89145 47.1614 6.85006 46.9464C6.82127 46.7969 6.6578 46.6535 6.4868 46.6276C5.56336 46.4881 5.44175 46.4071 5.14369 45.7333C4.96209 45.3228 4.87614 44.8891 4.93216 44.6659C4.99765 44.4049 4.95122 44.261 4.78036 44.1955C4.64497 44.1435 4.5342 43.9581 4.5342 43.7834C4.5342 43.4734 4.61933 43.4659 8.0912 43.4682C10.0476 43.4694 11.7186 43.5223 11.8046 43.5855C12.0799 43.7877 12.0451 44.077 11.7248 44.2484C11.4432 44.3991 11.4137 44.5778 11.4137 46.1293C11.4137 47.0722 11.3542 47.8436 11.2816 47.8436C11.2089 47.8436 11.0358 47.7181 10.897 47.5647C10.7103 47.3584 10.6327 46.9 10.5991 45.8057L10.5537 44.3257H10.0847H9.61563L9.57143 46.0847C9.54712 47.0521 9.46315 47.8436 9.38485 47.8436C9.30655 47.8436 9.13296 47.6873 8.99909 47.4962C8.82126 47.2423 8.7557 46.7579 8.7557 45.6981C8.7557 44.2672 8.75057 44.2476 8.37673 44.2476C8.01358 44.2476 7.99517 44.2982 7.93595 45.4593C7.90196 46.1257 7.77849 46.8921 7.66158 47.1624C7.47452 47.5947 7.48052 47.6853 7.71147 47.9162C7.85583 48.0606 7.97394 48.244 7.97394 48.3239C7.97394 48.5026 7.95397 48.5019 7.66124 48.3127ZM6.94093 45.7201C6.99312 45.5841 7.03583 45.1971 7.03583 44.8602C7.03583 44.2934 7.00304 44.2476 6.59804 44.2476C6.35726 44.2476 6.07583 44.332 5.97264 44.4352C5.77412 44.6337 5.71263 45.6866 5.88925 45.8632C6.09423 46.0682 6.84665 45.9658 6.94093 45.7201ZM31.6612 47.7495C31.4893 47.6171 31.3693 47.4341 31.3946 47.3426C31.4247 47.234 31.2619 47.2142 30.9255 47.2856C29.501 47.5875 29.4653 47.5839 28.8877 47.0767C28.0698 46.3586 28.0003 45.8676 28.6326 45.2766C29.0544 44.8824 29.2655 44.8026 29.8546 44.8148C30.2463 44.8229 30.7313 44.8842 30.9323 44.9512C31.2544 45.0585 31.2915 45.0286 31.245 44.6994C31.1947 44.3434 31.1297 44.3236 29.871 44.2798C28.6368 44.2369 28.1433 44.0882 28.1433 43.7594C28.1433 43.6839 29.0187 43.6221 30.0885 43.6221C31.1583 43.6221 32.0746 43.556 32.1245 43.4751C32.3434 43.121 30.7621 42.1311 29.7085 41.9626C29.1388 41.8715 29.0754 41.8977 28.9281 42.2851C28.7485 42.7577 28.2603 42.785 28.1722 42.3275C28.1358 42.1387 28.2834 41.9842 28.6436 41.8336C29.6621 41.4081 31.4204 41.9495 32.4524 43.0064C32.7831 43.3451 33.1744 43.6221 33.3219 43.6221C33.7581 43.6221 34.0847 43.7966 34.0847 44.0298C34.0847 44.1917 33.8442 44.2476 33.1466 44.2476C32.2502 44.2476 32.2085 44.2649 32.2085 44.6384C32.2085 44.9794 32.277 45.0293 32.7445 45.0293C33.549 45.0293 33.772 45.3521 33.772 46.5166C33.772 47.0643 33.7131 47.5489 33.6411 47.5934C33.5691 47.6379 33.3581 47.5677 33.1721 47.4374C32.9117 47.255 32.8339 47.0407 32.8339 46.5058C32.8339 45.9153 32.787 45.8111 32.5212 45.8111C32.2383 45.8111 32.2085 45.9153 32.2085 46.9055C32.2085 47.5075 32.1557 47.9978 32.0912 47.995C32.0267 47.9923 31.8332 47.8818 31.6612 47.7495ZM30.2048 46.7562C30.4039 46.6741 30.7348 46.473 30.9401 46.3094L31.3134 46.0118L30.7988 45.7551C30.0577 45.3854 29.1366 45.4158 28.9219 45.817C28.516 46.5755 29.2824 47.1367 30.2048 46.7562ZM13.0796 47.5577C12.8768 47.3336 12.8208 46.9485 12.8208 45.7764C12.8208 44.5914 12.7722 44.2623 12.5863 44.191C12.4573 44.1415 12.3518 43.9581 12.3518 43.7834C12.3518 43.4723 12.4352 43.4658 16.3978 43.4658C19.4556 43.4658 20.478 43.5135 20.5839 43.6612C20.7975 43.9593 20.6546 47.8448 20.4302 47.8384C20.0734 47.8283 19.544 47.2404 19.544 46.8542C19.544 46.2131 19.3901 45.9925 18.8095 45.8009C18.3297 45.6425 18.206 45.6593 17.8461 45.9315C17.4 46.2691 17.3799 46.6487 17.7843 47.101C18.0086 47.3518 18.0031 47.3746 17.7192 47.3746C17.3922 47.3746 16.842 46.8574 16.6797 46.3974C16.5616 46.0627 16.0152 46.0356 15.8913 46.3583C15.7667 46.6831 15.112 46.6523 14.7995 46.3069C14.6572 46.1496 14.5407 45.8382 14.5407 45.6148C14.5407 45.2168 14.5666 45.207 15.8306 45.1282C16.5401 45.084 17.4561 45.0013 17.8662 44.9444C18.4226 44.8672 18.709 44.9046 18.9943 45.0915C19.5019 45.4241 19.5001 45.425 19.574 44.7915L19.6383 44.2409L16.7377 44.2833L13.8371 44.3257L13.7929 46.0847C13.7464 47.9342 13.6328 48.1689 13.0796 47.5577ZM21.8948 47.5412C21.8057 47.3749 21.7329 46.574 21.7329 45.7614C21.7329 44.4155 21.7051 44.2767 21.4202 44.2022C21.2482 44.1573 21.1075 44.0084 21.1075 43.8713C21.1075 43.6511 21.496 43.6221 24.4523 43.6221C27.3581 43.6221 27.8096 43.6546 27.8921 43.8695C28.022 44.2082 28.0257 44.2009 27.6743 44.2929C27.3853 44.3684 27.3616 44.5061 27.3616 46.1091C27.3616 47.4782 27.3162 47.8436 27.1462 47.8436C26.8255 47.8436 26.5759 47.4718 26.4736 46.8413C26.3917 46.3364 26.3336 46.2802 25.8949 46.2811C25.6266 46.2816 25.2056 46.3872 24.9593 46.5156C24.713 46.6441 24.4274 46.7492 24.3247 46.7492C23.986 46.7492 23.6037 46.3644 23.5281 45.9474C23.4633 45.5904 23.517 45.5246 23.9418 45.4396C24.2103 45.3859 24.883 45.342 25.4366 45.342H26.4433L26.3943 44.8339L26.3453 44.3257L24.43 44.2818L22.5147 44.2379V46.0408C22.5147 47.5198 22.4735 47.8436 22.2856 47.8436C22.1597 47.8436 21.9838 47.7076 21.8948 47.5412ZM37.9544 47.6748C37.7763 47.5711 37.6808 47.3244 37.6808 46.9685C37.6808 46.0014 36.6383 45.3648 35.7943 45.8166C35.562 45.9409 35.4919 46.1467 35.4919 46.7038V47.4291L35.101 47.0619C34.6132 46.6036 34.5626 45.6803 35.0034 45.2814C35.4471 44.8798 36.2975 44.7964 36.8794 45.0974C37.4832 45.4096 37.6808 45.3134 37.6808 44.7074V44.2476H36.2146C35.1788 44.2476 34.6973 44.186 34.5742 44.0377C34.4785 43.9223 34.4464 43.7816 34.503 43.725C34.696 43.532 38.6997 43.6091 38.9003 43.8098C39.1557 44.0651 39.1361 44.2476 38.8534 44.2476C38.6585 44.2476 38.6189 44.5516 38.6189 46.0456C38.6189 47.9158 38.5708 48.0338 37.9544 47.6748ZM42.684 47.5309C42.5103 47.3572 42.3713 47.0098 42.3713 46.7492C42.3713 46.315 42.3296 46.2801 41.8092 46.2801C41.5 46.2801 41.0602 46.4121 40.832 46.5734C40.3534 46.9115 39.8347 46.7991 39.5672 46.2992C39.1886 45.5917 39.3092 45.5129 40.8446 45.4651L42.2886 45.4202L42.3835 44.8339L42.4785 44.2476H41.1126C40.0851 44.2476 39.726 44.1932 39.6627 44.0283C39.6164 43.9077 39.6206 43.767 39.672 43.7156C39.7234 43.6642 40.6003 43.6221 41.6206 43.6221C43.1606 43.6221 43.4916 43.6638 43.5697 43.8672C43.6214 44.002 43.584 44.1919 43.4866 44.2893C43.3765 44.3994 43.3095 45.1058 43.3095 46.155C43.3095 47.1765 43.2477 47.8436 43.1531 47.8436C43.0671 47.8436 42.856 47.7029 42.684 47.5309ZM21.6539 42.9958C21.3623 42.6736 21.3904 42.5308 21.7577 42.4688C21.873 42.4493 22.3896 42.2687 22.9055 42.0674C23.4215 41.8662 24.0195 41.7113 24.2345 41.7232C24.7069 41.7495 27.3108 42.8834 27.0774 42.9612C26.9869 42.9913 26.4257 42.871 25.8304 42.6937C25.2351 42.5164 24.5797 42.3724 24.374 42.3737C23.8949 42.3767 23.0088 42.6855 22.4741 43.0359C21.9596 43.373 21.9969 43.3748 21.6539 42.9958ZM12.9381 42.9354C12.7876 42.8212 12.6645 42.6475 12.6645 42.5495C12.6645 42.4515 12.7876 42.3711 12.9381 42.3708C13.0886 42.3705 13.458 42.2194 13.759 42.0352C14.6227 41.5066 15.9836 41.5113 17.3804 42.0478C18.0031 42.287 18.5377 42.5576 18.5682 42.6492C18.6304 42.8358 18.3829 42.7923 16.9349 42.3622C15.8634 42.044 15.6071 42.0796 14.2078 42.7416C13.2035 43.2167 13.291 43.2033 12.9381 42.9354ZM11.2573 25.5712V11.0144C7.89383 11.0516 4.68412 11.0967 1.25875 11.124L1.28911 25.6026L1.24922 40.3388H6.25327H11.2573V25.5712ZM2.97068 36.9772V36.2736H4.34658C5.88448 36.2736 6.09772 36.1651 6.09772 35.3824V34.8664H4.5342H2.97068V32.9902V31.114H3.59022H4.20976L4.25472 32.5603L4.29967 34.0065H5.15961H6.01954L6.0645 32.5603L6.10945 31.114H7.90163H9.69381V31.8176V32.5212H8.20847H6.72313V33.3029V34.0847H8.20847H9.69381V35.8827V37.6808H8.99632H8.29882L8.25364 36.3127L8.20847 34.9446H7.42671H6.64495L6.59978 36.3127L6.5546 37.6808H4.76264H2.97068V36.9772ZM3.16612 28.6678C3.05734 28.6224 2.97068 28.3173 2.97068 27.9796V27.3729L4.49511 27.3281L6.01954 27.2834V26.5016V25.7199L4.49511 25.6751L2.97068 25.6304V23.7598V21.8893H3.59043H4.21017L4.25492 23.4137L4.29967 24.9381L5.1987 24.985L6.09772 25.0319V23.4606V21.8893H7.89577H9.69381V22.5928V23.2964H8.20847H6.72313V24.1564V25.0163H8.21343H9.70373L9.65968 26.8534L9.61563 28.6906H8.99023H8.36482L8.28664 27.2052L8.20847 25.7199H7.50489H6.8013L6.72313 27.2052L6.64495 28.6906L5.00326 28.7199C4.10032 28.736 3.27361 28.7125 3.16612 28.6678ZM3.07492 19.4397C3.01759 19.3824 2.97068 19.0332 2.97068 18.6636V17.9918L4.49511 17.947L6.01954 17.9023V17.1987V16.4951L4.84691 16.4556C2.84495 16.388 2.97068 16.5113 2.97068 14.6159V12.9772H3.67427H4.37785V14.3844V15.7915H5.23778H6.09772V14.3844V12.9772H7.89577H9.69381V13.6026V14.228H8.20847H6.72313V15.0039V15.7798L8.16938 15.8248L9.61563 15.8697L9.65968 17.7068L9.70373 19.544H9.00066H8.29758L8.25303 17.9414L8.20847 16.3388H7.50489H6.8013L6.75674 17.9414L6.71219 19.544H4.94567C3.97409 19.544 3.13225 19.4971 3.07492 19.4397ZM14.0669 35.9302C14.0808 31.3733 13.9497 29.9981 13.4589 29.5505C12.7167 28.8737 12.2098 26.6279 12.6907 26.147C12.83 26.0078 12.83 25.8197 12.6907 25.355C12.3013 24.055 12.5707 22.602 13.3623 21.7329C13.5581 21.5179 13.7781 21.0606 13.8511 20.7166C13.9241 20.3726 13.9861 18.0156 13.9887 15.4788L13.9935 11.0303L12.8599 10.9924L11.7264 11.0247V25.5881V40.3388H12.8899H14.0534L14.0669 35.9302ZM33.6156 39.2431V38.1475L23.9609 38.1877L14.3062 38.228L14.277 39.2834L14.2478 40.3388H23.9317H33.6156V39.2431ZM36.1173 25.5794V10.9605L35.057 10.9706L33.9831 10.9835L33.9653 16.0507L33.9242 21.2349L34.2818 21.6793C34.4785 21.9238 34.8044 22.4647 35.006 22.8814C35.3113 23.5127 35.354 23.7735 35.2618 24.4449C35.2009 24.8882 35.1611 25.4971 35.1732 25.798C35.2774 28.3781 35.2782 28.3707 34.7883 29.0933C34.5303 29.4737 34.257 30.0664 34.181 30.4104C34.105 30.7544 34.0141 33.129 33.979 35.6873L33.9152 40.3388H35.0162H36.1173L36.1173 25.5794ZM46.9055 25.6488L46.8724 11.0085L46.1987 10.9814C45.5881 11.0295 43.7972 10.9922 41.2603 10.9849L36.6645 10.9718L36.6246 25.6026L36.5847 40.3388H41.7451H46.9055V25.6488ZM38.3062 36.0481V34.241H39.8697H41.4332V33.5467C41.4332 33.1648 41.3549 32.8039 41.2591 32.7447C41.1634 32.6856 40.4598 32.6498 39.6956 32.6653L38.3062 32.6934V31.9819V31.2704H40.1824H42.0586V32.7643V34.2582L42.8013 34.2105L43.544 34.1629L43.5889 32.7166L43.6339 31.2704H44.3366H45.0392L44.9952 33.0928L44.9511 34.9153L43.7003 34.8881C43.0124 34.8731 42.3567 34.9221 42.2433 34.9969C42.1146 35.0817 42.0558 35.362 42.0869 35.7423L42.1368 36.3518L43.5831 36.3967L45.0293 36.4417V37.1444V37.8471L43.1922 37.803L41.355 37.759L41.2769 36.3518L41.1987 34.9446L40.6054 34.9397C40.279 34.937 39.9479 34.9745 39.8696 35.0229C39.7912 35.0713 39.7064 35.7067 39.6811 36.435L39.6352 37.759L38.9707 37.807L38.3062 37.8551V36.0481ZM38.4104 28.6645C38.3531 28.6072 38.3062 27.8006 38.3062 26.8721V25.184L39.8306 25.1392L41.355 25.0945V24.3127V23.5309L39.8306 23.4862L38.3062 23.4414V22.7435V22.0456H40.1824H42.0586V23.6177V25.1898L42.8013 25.1421L43.544 25.0945L43.5887 23.57L43.6335 22.0456H44.4096H45.1857V23.9218V25.798H43.6222H42.0586V26.5739V27.3498L43.5049 27.3948L44.9511 27.4397L44.9992 28.1042L45.0473 28.7687H43.2403H41.4332V27.2834V25.798H40.5733H39.7134V27.2834V28.7687H39.114C38.7844 28.7687 38.4678 28.7218 38.4104 28.6645ZM38.3062 17.7516V15.9592L39.8306 15.9145L41.355 15.8697V15.0879V14.3062L39.8306 14.2614L38.3062 14.2167V13.5969V12.9772H40.2547H42.2032L42.2482 14.4235L42.2932 15.8697H42.9967H43.7003L43.7453 14.4235L43.7902 12.9772H44.488H45.1857V14.6971V16.4169H43.6922H42.1986L42.2459 17.2378L42.2932 18.0586L43.6612 18.1038L45.0293 18.149V18.8465V19.544H43.2313H41.4332V17.9805V16.4169H40.6515H39.8697V17.9805V19.544H39.0879H38.3062V17.7516ZM27.0489 35.9722C27.7685 35.4679 27.8799 35.0033 27.5082 34.058C27.04 32.8675 26.8242 32.6775 25.9394 32.6775C25.5278 32.6775 25.1449 32.7522 25.0885 32.8435C25.0321 32.9348 24.815 33.0745 24.6062 33.1539C24.0673 33.3588 24.0121 33.634 24.2548 34.9079C24.432 35.8384 24.5366 36.067 24.8599 36.2311C25.3536 36.4815 26.5188 36.3437 27.0489 35.9722ZM23.4295 35.9841C23.7474 35.6663 23.9902 34.3106 23.8315 33.7392C23.7769 33.5422 23.4946 33.1818 23.2043 32.9381C22.7247 32.5356 22.6283 32.511 22.1504 32.6688C21.861 32.7642 21.5256 32.8077 21.405 32.7653C21.2609 32.7148 21.0691 32.9413 20.8461 33.4256C20.2359 34.7505 20.245 35.3887 20.8831 36.0269C21.2553 36.3991 23.0446 36.3691 23.4295 35.9841ZM19.833 34.7349C20.061 34.4906 20.3816 33.9171 20.5453 33.4606C20.8071 32.7309 20.8149 32.6097 20.61 32.4586C20.4817 32.364 20.2925 32.1283 20.1894 31.9349C20.0708 31.7121 19.8569 31.5831 19.6064 31.5831C19.3888 31.5831 19.0715 31.5085 18.9013 31.4174C18.6491 31.2825 18.4938 31.3332 18.0629 31.6911C17.772 31.9326 17.5289 32.2026 17.5227 32.291C17.5165 32.3794 17.3707 32.5722 17.1987 32.7194C16.8784 32.9937 16.7865 33.6857 17.0212 34.0559C17.093 34.169 17.3206 34.3534 17.527 34.4656C17.7334 34.5777 18.1134 34.7838 18.3713 34.9234C19.0372 35.2837 19.3597 35.2421 19.833 34.7349ZM29.9959 34.8605C30.8607 34.4097 31.1765 34.0055 31.1765 33.3494C31.1765 32.8601 31.058 32.6809 30.2749 31.986C29.4683 31.2703 29.3096 31.192 28.7709 31.2434C28.277 31.2905 28.1344 31.3835 27.9781 31.7609C27.8733 32.0139 27.646 32.3201 27.473 32.4412L27.1584 32.6616L27.4758 33.3948C27.8954 34.3641 28.6035 35.1715 29.0375 35.1758C29.2284 35.1778 29.6596 35.0357 29.9959 34.8605ZM24.8599 32.6775C25.1732 32.3643 25.2507 31.8122 25.0741 31.1531C24.9917 30.8458 24.8784 30.8016 24.1772 30.8037C23.1934 30.8066 23.024 30.9061 22.9828 31.5049C22.9246 32.3524 22.9788 32.5085 23.4137 32.7444C24.0098 33.0679 24.4919 33.0456 24.8599 32.6775ZM17.3005 32.0112L18.1566 31.1886L18.026 30.4101C17.9263 29.8151 17.8226 29.6184 17.5862 29.5755C17.4161 29.5446 17.1212 29.3758 16.9309 29.2004C16.6046 28.8997 16.5626 28.8961 16.1934 29.138C15.9781 29.2791 15.659 29.4163 15.4842 29.443C14.8916 29.5334 14.3 30.1039 14.2605 30.6231C14.1913 31.5309 15.2907 32.8088 16.1571 32.8276C16.3151 32.8311 16.8297 32.4637 17.3005 32.0112ZM33.0562 32.154C33.3278 31.866 33.6453 31.3416 33.7618 30.9885C33.9488 30.422 33.943 30.2998 33.7129 29.9485C33.5694 29.7296 33.3657 29.5483 33.2602 29.5456C33.1547 29.5429 32.7166 29.3677 32.2866 29.1562C31.3276 28.6844 31.2676 28.6831 30.5939 29.1205C30.2305 29.3565 30.0263 29.6268 29.9739 29.9414C29.931 30.1994 29.8469 30.5619 29.787 30.747C29.6963 31.0278 29.8428 31.215 30.6698 31.8753C31.8883 32.8482 32.3505 32.9022 33.0562 32.154ZM22.095 32.3414C22.5653 32.0939 22.6662 31.9048 22.6665 31.2704C22.6668 30.7496 22.6284 30.711 21.8715 30.4715L21.0761 30.2199L20.7797 30.7061C20.3856 31.3523 20.4052 31.6767 20.8659 32.1374C21.2904 32.562 21.5835 32.6106 22.095 32.3414ZM27.5011 31.8254C27.698 31.413 27.6898 31.3054 27.4242 30.8109C27.0789 30.1682 26.8446 30.0926 25.9475 30.3341C25.3231 30.5022 25.2957 30.5346 25.3748 31.0078C25.4205 31.2812 25.5342 31.7022 25.6274 31.9435C25.7843 32.3497 25.8515 32.3785 26.5389 32.3343C27.1853 32.2928 27.3093 32.2272 27.5011 31.8254ZM20.3412 30.7848C20.5907 30.5177 20.7948 30.2062 20.7948 30.0926C20.7948 29.8732 19.7297 28.9251 19.4832 28.9251C19.2352 28.9251 18.4495 29.9029 18.4495 30.2116C18.4495 30.5686 19.2018 31.2586 19.5985 31.2654C19.7575 31.2681 20.0917 31.0518 20.3412 30.7848ZM29.388 30.6155C29.9006 30.0653 29.7523 29.5142 28.9351 28.9322L28.4754 28.6049L27.9185 29.0939C27.3168 29.6222 27.2663 29.7958 27.5397 30.3958C27.8291 31.0311 28.8841 31.1564 29.388 30.6155ZM25.4878 29.8999C26.3892 29.2514 27.2028 28.0515 27.3885 27.0966C27.4689 26.6834 27.4903 25.9072 27.4361 25.3717C27.3426 24.4486 27.2969 24.3618 26.5551 23.6948C25.0276 22.3215 23.1588 22.3283 21.8646 23.7121C20.8582 24.7881 20.9359 26.7995 22.0165 27.6464C22.8656 28.3118 23.2049 28.456 23.922 28.456C25.0052 28.456 26.1107 27.3797 26.1107 26.325C26.1107 25.4584 25.7677 24.8731 25.0584 24.5298C24.3165 24.1706 23.8665 24.2105 23.2771 24.6878C22.9734 24.9337 22.9055 25.135 22.9055 25.7899C22.9055 26.719 23.0734 26.8866 24.0078 26.8901C24.684 26.8927 25.0163 26.682 25.0163 26.2507C25.0163 26.0317 24.9089 25.9986 24.4143 26.0649C23.9576 26.1261 23.7894 26.0859 23.7174 25.8982C23.5947 25.5786 24.0039 25.1712 24.4411 25.1776C25.3554 25.191 25.6711 26.3602 24.9447 27.0427C24.6194 27.3482 24.4461 27.3908 23.8165 27.3199C22.608 27.1837 21.9734 26.1029 22.4759 25.0369C22.9632 24.0032 24.2426 23.6301 25.3193 24.2075C26.2781 24.7217 26.6877 26.0879 26.2551 27.3288C25.8082 28.6108 23.6759 29.2138 22.4208 28.4133C21.5871 27.8815 21.1973 27.4125 20.8792 26.5579C20.1179 24.5132 21.9168 22.2534 24.2628 22.3073C26.7121 22.3636 28.3042 24.5611 27.7657 27.1419C27.5458 28.1953 27.5068 28.28 26.8531 29.1205C26.6 29.446 26.4834 29.7068 26.591 29.7068C26.9793 29.7068 27.807 28.9163 28.1408 28.2266C28.3291 27.8378 28.5394 27.4848 28.6082 27.4423C28.8075 27.3191 28.9782 26.2617 28.9453 25.3536C28.8893 23.8074 27.8714 22.1526 26.3972 21.2114C26.1967 21.0834 25.5343 20.9033 24.9253 20.8112C23.3639 20.5751 21.9697 20.8758 21.0209 21.6533C19.5898 22.8259 19.0821 23.8893 19.0473 25.787C19.012 27.7144 19.8467 29.0976 21.551 29.9354C22.6544 30.4779 22.6758 30.4828 23.7679 30.4422C24.6333 30.41 24.8921 30.3284 25.4878 29.8999ZM19.0518 28.8627L19.4195 28.4952L19.0518 27.8111C18.8495 27.4349 18.6777 27.109 18.6699 27.0869C18.6622 27.0648 18.4384 27.0902 18.1726 27.1433C17.1184 27.3542 16.7062 28.349 17.3755 29.0674C17.7852 29.5072 18.4934 29.4207 19.0518 28.8627ZM15.8197 28.8972C16.4079 28.6314 16.5733 28.4765 16.5733 28.1915C16.5733 27.9907 16.6503 27.7031 16.7444 27.5524C16.8805 27.3345 16.8267 27.1427 16.4821 26.6164L16.0487 25.9544H14.8185C13.7102 25.9544 13.5491 25.9937 13.1918 26.351C12.8454 26.6974 12.8091 26.8307 12.9044 27.4063C13.2005 29.194 14.1212 29.6649 15.8197 28.8972ZM34.6947 28.6816C35.1363 27.9331 35.1382 26.7687 34.6987 26.21C34.4072 25.8394 34.2713 25.798 33.3437 25.798C32.0973 25.798 32.144 25.6713 33.4589 25.4854C33.9929 25.4099 34.5632 25.2274 34.7263 25.0798C35.3467 24.5183 34.8599 22.406 34.0221 22.0243C33.6903 21.8731 33.4577 21.9226 32.4791 22.3527C31.368 22.841 31.3199 22.8845 31.1366 23.5699C30.9634 24.2174 30.9748 24.3109 31.2648 24.6195C31.4398 24.8058 31.583 25.0687 31.583 25.2036C31.583 25.3385 31.7234 25.4856 31.895 25.5304C32.0171 25.5624 32.071 25.5989 32.0396 25.6791C31.9978 25.7856 31.8244 25.9567 31.6456 26.1732C31.1029 26.716 31.088 26.7615 31.1933 27.5562C31.2532 28.0081 31.3478 28.426 31.4035 28.4848C31.6417 28.7361 33.1203 29.2071 33.7174 29.2218C34.3025 29.2362 34.3988 29.183 34.6947 28.6816ZM30.5958 28.7415C30.9558 28.4033 31.081 27.6383 30.838 27.2617C30.7418 27.1127 29.702 26.7399 29.3743 26.737C29.2842 26.7363 28.6124 28.1708 28.6124 28.364C28.6124 28.4888 29.7483 29.0665 30.0095 29.0745C30.1329 29.0783 30.3968 28.9285 30.5958 28.7415ZM18.5277 25.8762V24.9381H17.6678H16.8078L16.6656 25.5138C16.5534 25.9679 16.58 26.1759 16.7918 26.4992C17.0279 26.8595 17.1488 26.9032 17.794 26.8616L18.5277 26.8143V25.8762ZM31.1166 26.4209C31.4247 26.1128 31.4407 25.7994 31.1889 25.006C31.0566 24.5891 30.4951 24.3841 29.796 24.4976L29.2378 24.5881V25.5108C29.2378 26.3216 29.2805 26.4507 29.5896 26.5749C30.1816 26.8129 30.7855 26.752 31.1166 26.4209ZM16.0133 25.5468C16.1493 25.4946 16.2606 25.3671 16.2606 25.2636C16.2606 25.16 16.4039 24.9214 16.579 24.7335C16.8285 24.4657 16.8623 24.3261 16.7354 24.0889C16.6462 23.9223 16.5733 23.6044 16.5733 23.3823C16.5733 23.0694 16.4503 22.9265 16.0261 22.7467C15.7251 22.6191 15.2302 22.4091 14.9263 22.2801C14.0581 21.9116 13.7263 21.9808 13.2899 22.6215C12.7683 23.3873 12.7218 24.9337 13.2117 25.2227C13.7856 25.5612 15.4684 25.7559 16.0133 25.5468ZM18.9113 23.8238C19.3429 22.848 19.3207 22.7248 18.6757 22.5119C18.086 22.3173 17.3567 22.4188 17.1636 22.7225C16.8879 23.1558 17.0406 23.8944 17.4723 24.2165C18.1854 24.7485 18.5457 24.6502 18.9113 23.8238ZM30.2932 24.0799C30.7133 23.8237 30.8013 23.6736 30.8013 23.2134C30.8013 22.5946 30.2366 21.8847 29.753 21.8956C29.5986 21.8991 29.2543 22.0926 28.9879 22.3256L28.5035 22.7492L28.881 23.57C29.3011 24.4835 29.5084 24.5584 30.2932 24.0799ZM17.0559 22.4202C17.1704 22.2822 17.4252 22.1081 17.6222 22.0332C17.8871 21.9325 17.9805 21.7732 17.9805 21.4219C17.9805 21.1607 18.066 20.8099 18.1706 20.6424C18.3391 20.3727 18.2594 20.2389 17.4738 19.4719C16.7441 18.7594 16.491 18.6059 16.0461 18.6059C15.5988 18.6059 15.3951 18.7312 14.8667 19.3315C14.334 19.9366 14.228 20.167 14.228 20.7195C14.228 21.459 14.2685 21.5063 15.4788 22.1815C16.4601 22.7289 16.7618 22.7746 17.0559 22.4202ZM31.8929 22.3594C33.0255 21.913 33.7615 21.2042 33.6888 20.6299C33.6091 20.0004 33.4036 19.6647 32.7424 19.0842C32.0032 18.4352 31.6221 18.523 30.5301 19.594C29.8436 20.2674 29.7068 20.4935 29.7068 20.9553C29.7068 21.4046 29.7952 21.5613 30.1748 21.7855C30.4321 21.9376 30.716 22.199 30.8057 22.3665C31.0041 22.7373 30.9331 22.7378 31.8929 22.3594ZM20.0586 21.9678C20.3775 21.667 20.6384 21.3746 20.6384 21.318C20.6384 21.2615 20.459 20.9799 20.2396 20.6923C19.7549 20.0568 19.2208 20.0093 18.6769 20.5532C18.1114 21.1187 18.1614 21.7742 18.8013 22.184C19.0808 22.363 19.3476 22.5106 19.3941 22.512C19.4407 22.5135 19.7397 22.2686 20.0586 21.9678ZM29.3945 21.4196C29.5946 21.0456 29.3604 20.4024 28.9428 20.1789C28.3523 19.8629 27.7198 19.9789 27.3722 20.4671C27.1944 20.7169 27.0489 20.9901 27.0489 21.0743C27.0489 21.1586 27.3334 21.4845 27.6811 21.7987L28.3134 22.3699L28.7759 22.0405C29.0303 21.8594 29.3086 21.5799 29.3945 21.4196ZM21.9283 20.8186C22.7382 20.4357 22.8376 20.1697 22.4065 19.5397C22.057 19.0291 21.8885 18.9238 21.4159 18.921C20.8284 18.9174 20.3256 19.3352 20.3263 19.8265C20.3268 20.2769 20.8857 21.3257 21.0731 21.2282C21.135 21.1961 21.5199 21.0117 21.9283 20.8186ZM27.0375 20.5392C27.6679 19.7377 27.3371 18.8746 26.3215 18.6715C25.7391 18.555 25.3402 18.9011 25.3029 19.5551C25.2886 19.807 25.271 20.1269 25.2638 20.2661C25.2559 20.4195 25.4665 20.597 25.798 20.7165C26.5967 21.0045 26.681 20.9924 27.0375 20.5392ZM24.8899 19.8567C24.9568 19.5557 24.9783 19.16 24.9377 18.9774C24.8391 18.5337 24.0197 18.1978 23.4934 18.3854C22.9189 18.5902 22.7691 18.923 22.8896 19.7264L22.9951 20.4305L23.8818 20.4172C24.7641 20.404 24.769 20.4013 24.8899 19.8567ZM30.319 19.5002C31.4439 18.4773 31.5146 17.6358 30.5439 16.824C29.8914 16.2783 28.5667 15.9741 28.1931 16.2842C27.8984 16.5287 27.2052 18.0663 27.2052 18.4753C27.2052 19.0082 27.8439 19.689 28.445 19.7967C28.752 19.8518 29.1088 19.9558 29.2378 20.028C29.5436 20.1992 29.558 20.1922 30.319 19.5002ZM19.7394 19.8584C19.8899 19.8575 20.013 19.7562 20.013 19.6335C20.013 19.5107 20.1889 19.272 20.4039 19.1029C20.8906 18.72 20.8928 18.4744 20.4178 17.5453C19.9943 16.7168 19.47 16.1038 19.1861 16.1051C18.6221 16.1077 17.8254 16.4831 17.2356 17.0241C16.6172 17.5913 16.581 17.6681 16.7363 18.0817C16.8284 18.327 17.234 18.867 17.6376 19.2817C18.3038 19.9663 18.4217 20.0277 18.9186 19.948C19.2196 19.8996 19.5889 19.8593 19.7394 19.8584ZM22.6715 18.5271C22.7789 18.3977 23.0865 18.2337 23.3552 18.1626L23.8436 18.0332L23.7958 16.8733C23.7432 15.5986 23.4416 14.9693 22.8407 14.8803C22.6504 14.8521 22.0096 14.9764 21.4168 15.1564C20.4166 15.4602 20.3324 15.5202 20.2473 15.9895C20.1842 16.3372 20.2554 16.6886 20.4752 17.1145C20.651 17.4551 20.7948 17.8159 20.7948 17.9162C20.7948 18.2633 21.417 18.5894 22.3783 18.7462C22.4322 18.755 22.5642 18.6564 22.6715 18.5271ZM26.3824 18.4308C26.8181 18.4465 26.9197 18.3745 27.1124 17.9132C27.2355 17.6185 27.3832 17.0018 27.4406 16.5427C27.5619 15.5719 27.3901 15.3395 26.3271 15.0367C24.6876 14.5697 24.2328 14.9303 24.1133 16.792L24.0403 17.9301L24.6455 18.2615C24.9902 18.4502 25.3854 18.554 25.5635 18.5027C25.7355 18.4531 26.104 18.4207 26.3824 18.4308ZM46.8687 5.8241L46.9101 1.09446H24.0805H1.25082V5.86371V10.633L24.0391 10.5934L46.8274 10.5537L46.8687 5.8241ZM17.4695 8.66169C17.4178 8.60999 17.0015 8.52204 16.5444 8.46625C15.7835 8.37338 15.7092 8.32853 15.6639 7.93485C15.6181 7.53692 15.656 7.50489 16.172 7.50489C16.6697 7.50489 16.7296 7.46074 16.7296 7.09446C16.7296 6.72335 16.6855 6.69288 16.2683 6.77631C15.1624 6.9975 14.3844 6.22689 14.3844 4.91029C14.3844 4.5416 14.314 4.19647 14.228 4.14332C13.7053 3.82029 14.4077 3.75244 18.274 3.75244C21.7276 3.75244 22.5094 3.79229 22.662 3.97607C22.8104 4.15492 22.7829 4.23427 22.5248 4.37245C22.2273 4.53166 22.2016 4.68881 22.197 6.37684L22.1921 8.20847L21.7952 7.75708C21.4141 7.32363 21.3745 7.31356 20.7986 7.50363C20.0699 7.74412 19.1739 7.60385 18.7535 7.18346C18.3439 6.77387 18.3581 5.94216 18.7824 5.48672C19.0833 5.16374 19.2295 5.13465 20.3068 5.18362C21.488 5.23731 21.4984 5.23439 21.4984 4.84691V4.45603H19.544H17.5896L17.4965 5.94137C17.4453 6.75831 17.3508 7.57899 17.2864 7.76511C17.1975 8.02187 17.2482 8.1458 17.4967 8.27876C17.6768 8.37514 17.8241 8.52188 17.8241 8.60485C17.8241 8.77302 17.6144 8.80663 17.4695 8.66169ZM20.8539 6.7992C21.1653 6.66906 21.4202 6.466 21.4202 6.34796C21.4202 5.82843 19.5287 5.39382 19.1062 5.81629C18.8595 6.06297 18.8649 6.83176 19.114 6.93228C19.5069 7.09079 20.3015 7.03002 20.8539 6.7992ZM16.4839 6.16473C16.6315 6.01717 16.7296 5.64914 16.7296 5.24334C16.7296 4.51841 16.5791 4.37588 15.8178 4.38024C15.1354 4.38416 14.9685 4.57881 15.0666 5.25659C15.1148 5.59022 15.157 5.94598 15.1602 6.04717C15.1721 6.41799 16.1443 6.50434 16.4839 6.16473ZM32.9067 8.25452C32.7125 8.10172 32.2472 7.83936 31.8729 7.67149C30.8624 7.21841 30.4495 6.8334 30.4495 6.34419C30.4495 5.7815 30.6105 5.64477 31.4379 5.50455C32.072 5.3971 32.1344 5.34538 32.1787 4.89061L32.2271 4.39401L31.3203 4.34684C30.6036 4.30956 30.4025 4.24232 30.3614 4.02606C30.3143 3.77835 30.4791 3.75244 32.1021 3.75244C33.4959 3.75244 33.9136 3.80124 33.979 3.97168C34.0886 4.25738 33.9564 4.37785 33.5333 4.37785C33.232 4.37785 33.1794 4.48381 33.1002 5.25066C33.0507 5.73071 32.8673 6.41228 32.6926 6.76526C32.3279 7.50245 32.3863 7.62769 33.2982 8.06464C33.6428 8.22974 33.9256 8.40251 33.9265 8.44858C33.9307 8.64337 33.2321 8.51042 32.9067 8.25452ZM39.9756 8.00452C39.7664 7.77337 39.7134 7.39328 39.7134 6.1245V4.5342H39.1757H38.638L38.6675 6.33231C38.6988 8.23687 38.6355 8.38217 38.023 7.8115C37.7869 7.59157 37.6808 7.30843 37.6808 6.89849C37.6808 6.41345 37.6076 6.27092 37.2825 6.12282C35.9661 5.52302 34.9191 6.48419 35.8312 7.4551C36.0179 7.65379 36.13 7.857 36.0803 7.90668C35.9372 8.04977 35.0662 7.54151 34.7978 7.15829C33.9298 5.91912 35.6315 4.6228 37.1123 5.3951C37.3586 5.52356 37.5873 5.62866 37.6205 5.62866C37.6536 5.62866 37.6808 5.34723 37.6808 5.00326V4.37785H36.2267C34.8627 4.37785 34.3974 4.25058 34.3974 3.87752C34.3974 3.80873 35.1362 3.75244 36.0391 3.75244C37.3941 3.75244 37.6808 3.71149 37.6808 3.51792C37.6808 3.32828 37.4324 3.28339 36.3831 3.28339C35.0532 3.28339 34.7101 3.15157 34.7101 2.64066C34.7101 2.25368 35.9137 1.71987 36.7862 1.71987C37.8473 1.71987 39.1201 2.2535 39.9018 3.02618C40.2711 3.39118 40.7668 3.81106 41.0033 3.95926C41.525 4.28621 41.5521 4.49557 41.0814 4.56242C40.7455 4.61013 40.7261 4.69265 40.6515 6.39785C40.5707 8.24204 40.4501 8.52884 39.9756 8.00452ZM39.4475 3.53733C39.2499 3.19727 38.3901 2.5258 37.9269 2.34967C37.3932 2.14677 36.4153 2.1428 35.8929 2.34141C35.175 2.61435 35.4516 2.81433 36.5472 2.81451C37.5046 2.81467 37.6462 2.85741 38.0717 3.27463C38.3921 3.58887 38.7041 3.7374 39.0566 3.74351C39.4523 3.75036 39.5434 3.70229 39.4475 3.53733ZM7.92 7.84437C7.71677 7.6198 7.66124 7.23395 7.66124 6.04632C7.66124 5.21466 7.5959 4.5342 7.51605 4.5342C7.28308 4.5342 6.86823 4.05349 6.96545 3.89619C7.01431 3.81713 7.20175 3.75244 7.38199 3.75244C7.69839 3.75244 7.70006 3.74179 7.43031 3.44371C7.15923 3.14417 7.16432 3.1298 7.60151 2.96085C8.47768 2.62227 9.932 2.19293 10.2095 2.19094C10.3641 2.18983 10.7717 2.32471 11.1152 2.49068C11.4587 2.65664 11.947 2.83795 12.2003 2.89359C12.4537 2.94922 12.7004 3.05863 12.7486 3.13671C12.8528 3.30521 12.0668 3.17352 11.1792 2.87374C10.3833 2.60497 10.1356 2.60622 9.50368 2.8822C9.22128 3.00552 8.76156 3.19859 8.48208 3.31125C8.20261 3.4239 7.97394 3.56926 7.97394 3.63426C7.97394 3.69926 9.24919 3.75244 10.8078 3.75244H13.6417L13.544 4.24104C13.4902 4.50977 13.4463 5.49479 13.4463 6.42997C13.4463 8.25759 13.323 8.49198 12.7579 7.73941C12.4318 7.30514 12.1626 7.2458 11.9084 7.55211C11.8155 7.66407 11.4542 7.77251 11.1055 7.79309C10.2056 7.84618 9.38111 7.21358 9.38111 6.47004C9.38111 5.87436 9.78441 5.37766 10.3919 5.22519C10.83 5.11524 11.8142 5.2009 12.2345 5.38556C12.4668 5.48759 12.5081 5.42047 12.5081 4.94181V4.37785H10.5537H8.59935V6.00676C8.59935 8.12994 8.47727 8.46015 7.92 7.84437ZM11.9556 6.9287C12.3135 6.75801 12.5081 6.55609 12.5081 6.35541C12.5081 6.18501 12.4672 6.08652 12.4172 6.13653C12.3672 6.18654 12.088 6.12791 11.7968 6.00624C10.7752 5.57937 10.0065 5.78647 10.0065 6.4886C10.0065 7.21444 10.9226 7.4213 11.9556 6.9287ZM28.6185 7.78811C28.3426 7.49195 28.2997 7.23957 28.2997 5.91189V4.37785H27.8306H27.3616V6.1759C27.3616 7.16482 27.297 7.97394 27.218 7.97394C26.8134 7.97394 26.5798 7.74558 26.5798 7.35004C26.5798 7.03204 26.4857 6.89074 26.228 6.82167C25.6747 6.67341 24.7317 6.70742 24.6254 6.87948C24.4622 7.14363 23.7827 7.05303 23.4528 6.72313C23.0395 6.30985 23.0584 6.12104 23.5309 5.94137C23.8447 5.82208 23.9218 5.68523 23.9218 5.24775C23.9218 4.73855 23.4599 4.06515 23.1106 4.06515C23.0408 4.06515 22.9837 3.99479 22.9837 3.90879C22.9837 3.8228 23.3707 3.75244 23.8436 3.75244H24.7036V4.84691V5.94137H25.6417H26.5798V4.84691V3.75244H28.0339C28.9564 3.75244 29.5565 3.82104 29.6756 3.94006C29.9414 4.20592 29.9095 4.32927 29.5505 4.42315C29.2605 4.49899 29.2378 4.63642 29.2378 6.31761C29.2378 7.37285 29.175 8.13029 29.0875 8.13029C29.0049 8.13029 28.7938 7.97631 28.6185 7.78811ZM43.4886 6.66926C43.0937 6.24883 43.1693 5.85922 43.6721 5.72438C44.1584 5.59395 44.1979 5.60137 44.4709 5.87436C44.7928 6.1962 44.7809 6.34611 44.4039 6.72313C44.0053 7.1217 43.9083 7.11599 43.4886 6.66926ZM3.50963 6.55762C2.97262 5.96423 3.70824 5.38481 4.47658 5.79601C4.92091 6.03382 4.94538 6.27284 4.56098 6.62072C4.1795 6.96595 3.86192 6.94689 3.50963 6.55762Z" fill="#D40000"/>
</svg>
