<svg width="157" height="212" viewBox="0 0 157 212" fill="none" xmlns="http://www.w3.org/2000/svg">
<path d="M8.064 100V6.56H38.4C44.8853 6.56 50.5173 7.79733 55.296 10.272C60.16 12.7467 63.9147 16.2453 66.56 20.768C69.2907 25.2053 70.656 30.4533 70.656 36.512V69.92C70.656 75.8933 69.2907 81.1413 66.56 85.664C63.9147 90.1867 60.16 93.728 55.296 96.288C50.5173 98.7627 44.8853 100 38.4 100H8.064ZM27.264 82.08H38.4C42.3253 82.08 45.4827 80.9707 47.872 78.752C50.2613 76.5333 51.456 73.5893 51.456 69.92V36.512C51.456 32.928 50.2613 30.0267 47.872 27.808C45.4827 25.5893 42.3253 24.48 38.4 24.48H27.264V82.08ZM115.662 101.28C109.433 101.28 103.971 100.128 99.278 97.824C94.5847 95.4347 90.9153 92.1493 88.27 87.968C85.71 83.7013 84.43 78.752 84.43 73.12V33.44C84.43 27.7227 85.71 22.7733 88.27 18.592C90.9153 14.4107 94.5847 11.168 99.278 8.864C103.971 6.47467 109.433 5.28 115.662 5.28C121.977 5.28 127.438 6.47467 132.046 8.864C136.739 11.168 140.366 14.4107 142.926 18.592C145.571 22.7733 146.894 27.7227 146.894 33.44H127.694C127.694 29.6853 126.627 26.8267 124.494 24.864C122.446 22.9013 119.502 21.92 115.662 21.92C111.822 21.92 108.835 22.9013 106.702 24.864C104.654 26.8267 103.63 29.6853 103.63 33.44V73.12C103.63 76.7893 104.654 79.648 106.702 81.696C108.835 83.6587 111.822 84.64 115.662 84.64C119.502 84.64 122.446 83.6587 124.494 81.696C126.627 79.648 127.694 76.7893 127.694 73.12H146.894C146.894 78.752 145.571 83.7013 142.926 87.968C140.366 92.1493 136.739 95.4347 132.046 97.824C127.438 100.128 121.977 101.28 115.662 101.28ZM38.4 209.28C31.8293 209.28 26.112 208.171 21.248 205.952C16.384 203.733 12.6293 200.619 9.984 196.608C7.33867 192.597 6.016 187.861 6.016 182.4H25.216C25.216 185.557 26.4107 188.075 28.8 189.952C31.2747 191.744 34.6027 192.64 38.784 192.64C42.7947 192.64 45.9093 191.744 48.128 189.952C50.432 188.16 51.584 185.685 51.584 182.528C51.584 179.797 50.7307 177.451 49.024 175.488C47.3173 173.525 44.928 172.203 41.856 171.52L32.384 169.344C24.448 167.467 18.2613 164.011 13.824 158.976C9.472 153.856 7.296 147.627 7.296 140.288C7.296 134.827 8.53333 130.091 11.008 126.08C13.568 121.984 17.152 118.827 21.76 116.608C26.368 114.389 31.8293 113.28 38.144 113.28C47.7013 113.28 55.2533 115.669 60.8 120.448C66.432 125.141 69.248 131.499 69.248 139.52H50.048C50.048 136.533 48.9813 134.187 46.848 132.48C44.8 130.773 41.8133 129.92 37.888 129.92C34.2187 129.92 31.4027 130.773 29.44 132.48C27.4773 134.101 26.496 136.448 26.496 139.52C26.496 142.251 27.264 144.597 28.8 146.56C30.4213 148.437 32.6827 149.717 35.584 150.4L45.568 152.704C53.8453 154.581 60.1173 157.995 64.384 162.944C68.6507 167.808 70.784 174.037 70.784 181.632C70.784 187.093 69.4187 191.915 66.688 196.096C64.0427 200.277 60.288 203.52 55.424 205.824C50.6453 208.128 44.9707 209.28 38.4 209.28ZM115.15 209.28C108.579 209.28 102.862 208.171 97.998 205.952C93.134 203.733 89.3793 200.619 86.734 196.608C84.0887 192.597 82.766 187.861 82.766 182.4H101.966C101.966 185.557 103.161 188.075 105.55 189.952C108.025 191.744 111.353 192.64 115.534 192.64C119.545 192.64 122.659 191.744 124.878 189.952C127.182 188.16 128.334 185.685 128.334 182.528C128.334 179.797 127.481 177.451 125.774 175.488C124.067 173.525 121.678 172.203 118.606 171.52L109.134 169.344C101.198 167.467 95.0113 164.011 90.574 158.976C86.222 153.856 84.046 147.627 84.046 140.288C84.046 134.827 85.2833 130.091 87.758 126.08C90.318 121.984 93.902 118.827 98.51 116.608C103.118 114.389 108.579 113.28 114.894 113.28C124.451 113.28 132.003 115.669 137.55 120.448C143.182 125.141 145.998 131.499 145.998 139.52H126.798C126.798 136.533 125.731 134.187 123.598 132.48C121.55 130.773 118.563 129.92 114.638 129.92C110.969 129.92 108.153 130.773 106.19 132.48C104.227 134.101 103.246 136.448 103.246 139.52C103.246 142.251 104.014 144.597 105.55 146.56C107.171 148.437 109.433 149.717 112.334 150.4L122.318 152.704C130.595 154.581 136.867 157.995 141.134 162.944C145.401 167.808 147.534 174.037 147.534 181.632C147.534 187.093 146.169 191.915 143.438 196.096C140.793 200.277 137.038 203.52 132.174 205.824C127.395 208.128 121.721 209.28 115.15 209.28Z" fill="white"/>
</svg>
